<?xml version="1.0" encoding="UTF-8"?>
<!DOCTYPE svg PUBLIC "-//W3C//DTD SVG 1.1//EN" "http://www.w3.org/Graphics/SVG/1.1/DTD/svg11.dtd">
<!-- Creator: CorelDRAW 2021 (64-Bit) -->
<svg xmlns="http://www.w3.org/2000/svg" xml:space="preserve" width="88.7626mm" height="22.6773mm" version="1.1" style="shape-rendering:geometricPrecision; text-rendering:geometricPrecision; image-rendering:optimizeQuality; fill-rule:evenodd; clip-rule:evenodd"
viewBox="0 0 1142.61 291.92"
 xmlns:xlink="http://www.w3.org/1999/xlink"
 xmlns:xodm="http://www.corel.com/coreldraw/odm/2003">
 <defs>
  <style type="text/css">
   <![CDATA[
    .fil0 {fill:white}
   ]]>
  </style>
 </defs>
 <g id="Layer_x0020_1">
  <metadata id="CorelCorpID_0Corel-Layer"/>
  <g id="_1831224122272">
   <path class="fil0" d="M468.12 134.15c4.94,0 9.3,2.51 11.97,5.56 10.23,11.68 2.36,32.6 -9.91,32.6l-4.13 0c-7.4,0 -14.96,-11.41 -14.08,-19.18 1.07,-9.48 7.24,-18.98 16.15,-18.98zm-3.09 67.04c20.85,0 35.54,-8.77 44.52,-27.68 7.92,-16.69 4.4,-39.27 -9.18,-54.07 -1.86,-2.03 -3.56,-2.95 -5.65,-4.67 -2.55,-2.09 -3.84,-2.86 -6.77,-4.58 -11.46,-6.71 -28.25,-6.49 -39.66,-0.01 -6.22,3.53 -8.14,5.96 -12.93,10.79 -19.84,20.02 -16.11,55.07 4.46,70.36 8.02,5.96 13.56,9.86 25.21,9.86z"/>
   <path class="fil0" d="M520.73 121.77l0 68.07c0,1.41 1.97,4.37 2.84,5.41 4.01,4.88 13.63,5.62 19.16,1.11 5.08,-4.13 3.69,-15.69 4.53,-24.96l0.29 -14.57c1.17,-0.41 0.16,-1.88 3.42,3.73 1.54,2.65 2.43,4.15 3.86,6.53 3.78,6.32 15.19,26.36 19.95,29.56 5.9,3.96 8.96,4.4 15.42,1.8 10.46,-4.21 8.34,-21.47 8.83,-30.28 0.17,-3.08 0.1,-6.18 0.09,-9.27l0.01 -35.08c0.1,-12.33 -4.39,-20.82 -16.16,-17.24 -2.84,0.86 -4.3,1.27 -6.15,3.21 -1.19,1.24 -2.97,4.55 -3.27,6.01 -1.22,5.88 -0.22,28.31 -0.22,35.88 -2.7,-1.98 -3.85,-5.49 -5.64,-8.8l-16.45 -26.87c-11.22,-18.74 -30.51,-9.17 -30.51,5.76z"/>
   <path class="fil0" d="M776.52 132.09c27.82,0 15.24,20.05 0,16.5l0 -16.5zm-26.82 -6.19l0 66.01c0,3.64 8.94,13.09 19.71,6.31 8.22,-5.18 5.35,-9.1 6.23,-17.5 0.33,-3.16 0.88,-2.95 0.88,-7.37 9.38,6.28 13.26,29.29 30.7,27.32 9.88,-1.11 13.12,-9.94 8.66,-17.17 -2.43,-3.94 -11.7,-15.25 -12.54,-18.4 5.86,-3.1 10,-5.57 13.43,-13.39 5.59,-12.73 1.63,-30.54 -9.45,-38.04 -11.88,-8.04 -25.74,-6.34 -40.08,-6.34 -5.97,0 -10.04,1.3 -13.24,4.29 -2.71,2.54 -2.5,1.97 -3.44,5.84 -0.63,2.59 -0.85,4.8 -0.85,8.43z"/>
   <path class="fil0" d="M1068.41 115.59c0,15.99 14.34,13.41 29.91,13.41 -1.03,3.86 -1.96,3.43 -5.04,6.3 -5.72,5.31 -16.8,19.37 -5.16,24.6 4.9,2.2 25.68,-5.35 25.68,11.38 0,3.97 -3.02,7.44 -6.78,8.69 -13.21,4.36 -27.7,-11.24 -35.59,-1.56 -15.48,19 29.8,40.63 58.47,18.24 13.98,-10.92 18.26,-31.52 3.56,-48.11l-3.31 -2.88c-0.19,-0.12 -0.46,-0.26 -0.65,-0.38l-8.47 -3.91c5.39,-8.04 26.52,-24.81 13.9,-35.56 -5.08,-4.33 -23.64,-2.57 -31.42,-2.59 -10.92,-0.02 -35.09,-3.65 -35.09,12.37z"/>
   <path class="fil0" d="M827.06 148.59c0,21.17 1.56,39.1 21.18,49.99 9.95,5.52 24.7,4.47 35.1,-1.95 9.66,-5.97 15.48,-16.94 17.03,-28.35l1.28 -23.59c-0.01,-6.69 0.24,-24.42 -0.9,-28.53 -2.57,-9.22 -17.39,-9.27 -22.92,-2.41 -7.78,9.65 5.78,60.63 -12.6,60.63 -17.64,0 -7.85,-36.06 -10.4,-55.61 -1.65,-12.63 -25.49,-17.19 -26.79,5.02l-0.98 24.8z"/>
   <path class="fil0" d="M343.32 150.65c0,9.76 -0.53,15.73 4.31,24.57 1.86,3.38 5.77,9.84 8.29,12.34 18.59,18.4 50.23,16.92 60.16,4.92 9.48,-11.46 -2.1,-21.19 -6.75,-21.19 -11.42,0 -18.91,6.49 -30.68,-3.35 -3.88,-3.24 -5.49,-9.01 -5.27,-14.13 0.21,-4.85 3.47,-10.27 6.25,-13.25 2.08,-2.22 2.34,-2.57 5.34,-3.95 15.11,-6.93 17.56,4.41 26.14,-1.66 11.31,-8 13.66,-29.67 -20.34,-29.67 -25.02,0 -47.45,22.63 -47.45,45.38z"/>
   <path class="fil0" d="M906.48 153.75c0,57.62 74.26,58.4 74.26,28.88 0,-6.79 -6.74,-11.34 -11.34,-11.34 -6.36,0 -14.75,7.89 -27.03,-1.85 -9.5,-7.54 -8.87,-20.57 -0.62,-28.88 11.61,-11.69 21.41,-3.3 24.55,-3.3 13.64,0 27.14,-30.94 -13.41,-30.94 -18.05,0 -26.27,7.4 -32.36,14.06 -7.98,8.73 -14.06,20.78 -14.06,33.39z"/>
   <path class="fil0" d="M609.43 133.12c0,22.8 24.74,28.26 30.95,34.11 5.99,5.64 0.3,9.59 -6.34,8.44 -5.97,-1.03 -12.65,-7.13 -20.22,-2.07 -7.05,4.71 -10.29,18.16 8.27,25.27 33.62,12.89 61.09,-17.45 46,-40.85 -11.38,-17.65 -29.77,-15.77 -29.77,-23.86 0,-8.62 13.12,-1.03 19.6,-1.03 5.55,0 19.46,-18.48 -2.66,-26.22 -17.88,-6.26 -45.82,3.04 -45.82,26.22z"/>
   <path class="fil0" d="M674.41 118.68c0,17.83 6.32,14.28 20.63,15.47 0,6.57 -0.65,54.24 0.41,58.38 2.59,10.14 19.15,11.58 24.08,2.21 4.25,-8.08 2.33,-44.7 2.33,-57.5 0,-5.25 7.24,-3.44 11.43,-3.96 13.36,-1.66 11.1,-22.36 3.78,-24.66 -6.62,-2.08 -35.87,-1.3 -44.09,-1.3 -9.14,0 -18.57,2.51 -18.57,11.35z"/>
   <path class="fil0" d="M984.86 121.77c0,13.21 13.16,11.34 20.63,11.34 0.14,6.26 1.07,6.24 1.04,16.5l-0.06 41.32c0.56,13.38 18.81,13.05 24.44,3.7 4,-6.64 2.43,-51.22 2.43,-61.52l11.35 0c12.27,0 15.94,-24.75 2.06,-24.75l-50.54 0c-6.97,0 -11.35,6.25 -11.35,13.41z"/>
   <path class="fil0" d="M16.39 146.2c0,-9.91 1.19,-22.43 3.36,-30.58 1.27,-4.75 2.06,-8.43 3.42,-13.19 1.78,-6.22 9.99,-22.62 13.94,-27.94l14.66 -18.56c1.35,-1.76 2.13,-2.51 3.79,-4.15 5.97,-5.92 10.82,-10.43 17.67,-15.55 20.61,-15.4 50.13,-23.62 76.03,-23.62 28.17,0 49.96,3.93 74.42,18.02 4.77,2.75 8.67,5.21 13.26,8.4 6.94,4.83 11.57,9.64 16.85,15.64 1.95,2.21 3.42,3.26 5.23,5.6 2.33,3.02 8.3,8.68 8.66,13 -3.29,0.77 -6.73,3.23 -9.52,4.92l-27.31 16.02c-1.9,-1.4 -6.61,-11.02 -22.48,-23.74 -25.38,-20.34 -60.13,-24.89 -91.11,-14.02l-15.11 7.27c-2.24,1.41 -4.22,3.01 -6.34,4.5 -11.02,7.73 -14.62,12.41 -21.99,22.07 -2.24,2.94 -2.47,4.1 -4.32,7.23 -15.22,25.75 -17.31,56.38 -4.29,83.6 7.97,16.66 24.99,33.3 41.62,40.71 12.47,5.56 26.06,9.73 40.26,7.44 2.92,-0.47 4.36,-0.29 5.75,-2.19 -2.73,-0.64 -4.52,-1.44 -7.94,-1.44 1.07,-3.22 1.06,1.03 5.53,-2.19l0.77 -0.79c0.06,-0.05 0.19,-0.21 0.25,-0.26 4.23,-3.72 23.01,-1.81 43.29,-16.25 9.37,-6.67 13.1,-12.34 17.32,-15.17 2.7,0.63 11.19,6.49 14.45,8.66 1.46,0.97 2.87,1.92 4.33,2.9 4.69,3.13 15.24,9.16 17.33,12.28 -0.73,3.12 -2.15,3.85 -5.05,7.95 -1.52,2.16 -3.93,4.34 -5.79,6.48 -1.09,1.25 -5.21,4.98 -6.79,6.21 -17.45,13.57 -36.53,24.67 -59.33,28.77 -14.05,2.52 -33.54,2.59 -45.92,0.52 -11.94,-2 -28.19,-7.02 -38.4,-12.15 -8.46,-4.25 -12.46,-6.47 -19.87,-11.91 -10.96,-8.04 -20.44,-17.55 -28.14,-28.91 -13.1,-19.32 -22.52,-40.52 -22.52,-65.58zm197.87 -29.61c3.27,0 16.26,-7.7 19.5,-9.38 9.31,-4.83 17.49,-10.54 26.29,-16.32 23.16,-15.23 26.89,-10.8 15.9,-28.76 -8.46,-13.82 -10.27,-12.88 -15.89,-20.22 -1.35,-1.77 -1.34,-2.04 -3.08,-3.42l-11.66 -10c-15.57,-11.14 -24.1,-15.1 -43.24,-21.03 -3.77,-1.17 -7.94,-1.71 -11.82,-2.63 -11.18,-2.64 -24.28,-6.17 -37.91,-4.3 -7.99,1.1 -18.08,0.18 -26.62,1.54 -4.33,0.69 -7.58,1.55 -12.16,2.28 -9.05,1.45 -23.66,7.63 -31.46,11.14 -5.47,2.46 -2.48,0.14 -9.88,4.56 -7.26,4.34 -17.73,12.07 -23.86,18.02 -1.69,1.64 -2.31,1.78 -3.98,3.24 -13.01,11.46 -29.95,41.51 -35.83,57.33 -12.07,32.47 -11.77,74.59 3.52,105.32 1.68,3.38 2.57,6.37 4.63,9.81 10.62,17.76 18.5,29.77 35.5,43.22 24.68,19.53 43.12,26.66 73.43,32.73 20.18,4.04 47.81,2.39 67.06,-4.06l9.22 -3.05c3.17,-1.06 5.3,-2.29 8.12,-3.44 10.05,-4.08 14.75,-7.97 23.02,-12.37 4.95,-2.63 16.39,-11.66 20.04,-15.34 10.48,-10.57 28.96,-27.98 14.12,-39.04 -11.42,-8.51 -27.31,-17.58 -39.81,-25.18 -20.19,-12.28 -16.06,-11.75 -27.75,-0.05 -14,14.01 -26.72,18.96 -47.48,18.96 -22.57,0 -46.61,-17.67 -54.16,-34.67 -8.67,-19.51 -6.82,-31.5 -0.11,-50.65 1.67,-4.78 5.76,-9.66 8.87,-13.52 1.32,-1.64 1.57,-2.36 3.33,-3.9 1.76,-1.54 2.51,-1.87 4.34,-3.61 19.85,-18.92 50.4,-18.92 72.27,-4.02 12.73,8.68 17.5,20.81 27.57,20.81z"/>
   <path class="fil0" d="M246.76 148.37c0.3,-3.66 -0.71,-1 1.39,-2.94l7.69 -4.58c3.65,-2.14 6.87,-4.37 10.41,-6.2 23.09,-11.9 21.25,-17.39 19.85,6.01l-1.07 29.38c-4.24,-0.35 -32.35,-20.28 -38.27,-21.66zm57.05 -36.83c0,-7.88 -6.49,-11.44 -15.4,-6.02l-58.49 33.94c-14.57,8.62 -7.69,13.48 4.32,19.98l51.49 30.83c19.14,9.96 16.5,-11.32 16.62,-18.84l0.73 -18.73c-0.01,-14.02 0.72,-26.58 0.72,-41.16z"/>
  </g>
 </g>
</svg>
