<?xml version="1.0" encoding="UTF-8"?>
<!DOCTYPE svg PUBLIC "-//W3C//DTD SVG 1.1//EN" "http://www.w3.org/Graphics/SVG/1.1/DTD/svg11.dtd">
<!-- Creator: CorelDRAW 2021 (64-Bit) -->
<svg xmlns="http://www.w3.org/2000/svg" xml:space="preserve" width="87.4985mm" height="17.7153mm" version="1.1" style="shape-rendering:geometricPrecision; text-rendering:geometricPrecision; image-rendering:optimizeQuality; fill-rule:evenodd; clip-rule:evenodd"
viewBox="0 0 1111.47 225.03"
 xmlns:xlink="http://www.w3.org/1999/xlink"
 xmlns:xodm="http://www.corel.com/coreldraw/odm/2003">
 <defs>
  <style type="text/css">
   <![CDATA[
    .fil0 {fill:white}
   ]]>
  </style>
 </defs>
 <g id="Layer_x0020_1">
  <metadata id="CorelCorpID_0Corel-Layer"/>
  <g id="_1796422372976">
   <path class="fil0" d="M329.2 207.4c-5.27,-0.44 -20.03,-4.81 -26.36,-6.39l-40.63 -9.75c-4.19,-1.08 -8.68,-2.48 -13.27,-3.52l-47.59 -11.19c-11.77,-3.71 -11.48,-0.15 -8.63,-12.44 3.66,-15.76 8.25,-41.18 11.87,-55.3 6.6,-25.75 13.2,-55.36 20.31,-80.45 4.06,-14.32 0.01,-11.01 19.02,-6.89 4.98,1.08 8.71,2.01 13.43,3.36 19.64,5.62 48.74,11.45 66.72,17.25 1.8,0.58 4.04,1.54 6.34,2.05 3.19,0.71 3.93,0.62 6.9,1.49 26.95,7.92 27.43,2.94 23.96,17.51 -0.84,3.53 -1.26,6.01 -2.05,9.7l-20.71 96.85c-1.81,8.35 -6.7,32.25 -9.31,37.71zm-312.36 -171.29l0 -5.04c4.2,0 3.93,-0.93 7.43,-0.72l21.96 0.72c2.62,0 2.69,-0.47 5.04,-0.47l20.15 0.47c3.52,0 3.67,-0.65 6.55,-0.53 3.39,0.13 2.76,-0.07 6.84,-0.29 6.54,-0.35 10.48,0.87 16.82,0.83 14.33,-0.08 32.7,1.95 42.6,10.3 3.32,2.8 5.67,5.76 8.29,9.35 12.68,17.38 10.04,47.74 -7.45,62.4 -3.52,2.95 -6.94,4.46 -9.84,7.79 2.15,9.23 12.6,4.88 24.72,53.37 1.22,4.9 4.67,17.62 4.67,22.2l-38.63 0c-10.27,0 -6.61,3.67 -11.39,-12.96 -2.71,-9.42 -11.42,-39.47 -21.89,-45.28 -6.3,-3.5 -15.85,-3.92 -21.6,-1.67 -6.08,2.38 -4.15,21.81 -4.26,27.9 -0.02,1.13 -0.46,3.64 -0.49,5.97 -0.02,1.32 -1.24,24.84 -1.25,24.85 -1.33,2.16 -3.3,0.77 -10.15,0.54 -4.68,-0.16 -7.15,0.66 -12.11,0.66l-22.67 0c-1.93,0 -2.52,-0.58 -2.52,-2.52 0,-23.82 -0.84,-63.37 0.44,-85.39l-1.28 -72.47zm157.86 129.31c-0.58,-6.93 -9.91,-29.72 -14.11,-36.27 -6.76,-10.54 0.93,-4.06 10.33,-22.93 13.97,-28.08 4.42,-64.82 -22.26,-81.01 -2.02,-1.23 -3.94,-1.72 -6.41,-2.83l-14.62 -4.7c-16.85,-4.18 -112.1,-4.11 -120.08,-0.95 -4,1.59 -7.46,6.04 -7.55,11.76l0.2 37.74c0.87,7.89 -0.2,3.79 -0.1,8.43 0.07,2.93 0.79,4.93 0.79,9.3l0 28.55c0,4.83 -0.85,7.51 -0.85,10.92l0.85 20.15c0,2.05 -0.47,3.25 -0.49,4.3l0.49 15.85c0,7.56 0,15.11 0,22.67 -0,33.71 6.81,27.71 59.62,27.71 2.61,0 2.92,-0.38 4.33,-0.46 15.07,-0.87 15.85,-0.24 18.12,-17.39 0.89,-6.76 -0.42,-13.83 0.35,-20.64l0.72 -18.59c9.3,2.48 15.32,35.37 17.79,43.5 5.01,16.46 21.34,14.15 37.93,13.14 2.99,-0.18 1.19,0.04 4.02,0.32l27.71 -1.43c5.84,-1.2 9.1,-3.69 10.7,-8.68 0.93,-2.92 -0.11,-12.72 -1.58,-15.79 3.7,0.31 4.55,1.78 8.88,2.87 3.77,0.95 5.54,1.58 9.25,2.51l37.36 9.66c2.49,0.58 2.35,0.63 4.67,1.2l32.82 8.32c13.34,2.83 47.96,12.38 59,12.38 12.69,0 17.44,-27.94 19.25,-36.17l20.12 -90.72c2.31,-12.39 8.5,-36.64 8.5,-47.76 0,-13.27 -19.55,-15.79 -31.51,-19.72 -15.39,-5.06 -34.49,-8.84 -50.42,-13.39l-72.57 -17.27c-8.81,0 -11.8,6.44 -14.16,12.71 -0.64,1.69 -1.32,3.47 -1.81,4.91l-24.97 103.5c-1.69,7.83 -2.52,14.99 -4.51,22.36 -0.82,3.04 -1.59,8.22 -2.2,11.24 -0.52,2.63 -0.62,3.1 -1.19,5.53 -0.74,3.17 -0.09,3.49 -2.39,5.17z"/>
   <path class="fil0" d="M988.18 179.52c-2.27,3.39 -4.13,6.17 -6.38,9.57 -3.97,5.98 -4.11,7.77 -7.93,7.65l-47.66 -0.26 13.77 -21.49c1.42,-2.12 2.38,-3.48 3.7,-5.54l23.83 -36.62c16.8,-26.2 17.08,-16.76 3.08,-36.99l-44.38 -64.78 48.7 -0.84c3.7,0 4.55,1.61 6.08,3.99 5.56,8.64 22.19,34.43 27.51,37.99 6.39,-1.49 11.21,-12.19 16.29,-19.82 5.08,-7.62 9.66,-14.09 13.94,-22.17 18.4,0 34.22,0.84 52.9,0.84 -2.63,3.92 -5.26,7.14 -7.82,11.49l-30.3 45.27c-17.59,26.39 -18.74,21.73 -10.08,34.26l15.44 22.34c11.44,16.1 19.97,30.56 29.78,44.96 3.86,5.67 6.89,7.26 -3.71,7.12l-42.02 -0.03c-2.58,0 -14.32,-19.81 -16.32,-23.15 -21.2,-35.43 -17.63,-24.82 -38.43,6.19zm-79.6 -149.29c0,8.26 18.87,32.58 24.81,41.52l17.13 24.86c3.06,5.13 7.15,9.46 10.12,15.07l-3.53 4.87c-1.36,2.06 -2.27,3.41 -3.7,5.54l-37.94 59.46c-1.29,2.07 -2.4,3.46 -3.71,5.53 -4.77,7.55 -8.72,21.71 3.25,25.65 6.4,2.1 43.71,1.39 54.02,1.4 18.23,0.01 17.45,0.65 32.39,-23.86 1.9,-3.12 5.57,-9.68 7.91,-11.4 3.33,2.44 17.6,29.11 23.36,32.89 6.88,4.52 37.84,1.53 45.49,1.53l10.06 0.01c4.4,-0.26 8.65,0.34 11.93,-0.69 3.16,-0.99 5.22,-2.37 7.23,-4.52 9.11,-9.74 1.05,-20.83 -6.38,-32.76l-39.51 -57.89c-5.21,-6.92 -4.47,-4.25 2.9,-15.33 4.8,-7.21 45.68,-65.59 45.68,-71.87 0,-15.12 -6.32,-15.53 -20.19,-16.36 -0.91,-0.05 -2.53,0.03 -3.84,0.01l-44.82 -0.45c-10.35,0 -13.71,3.25 -19.49,12.42 -2.33,3.7 -10.82,17.06 -11.58,20.33l-1.68 0c-0.8,-2.99 -3.58,-6.06 -5.31,-8.97 -15.7,-26.43 -15.15,-23.78 -35,-23.78l-26.9 0.81c-4.29,0.12 -23,1.72 -26.39,3 -4.84,1.82 -6.33,6.87 -6.33,12.99z"/>
   <path class="fil0" d="M745.69 146.95c-0.09,-15.32 -0.6,-60.08 0.73,-71.53 0.48,-4.16 -0.49,-5.8 -0.57,-8.33l0.67 -8.32c0,-3.16 -0.49,-1.41 -0.37,-3.95l0.48 -17.78c0.16,-3.53 -0.37,-7.65 3.26,-7.65l115.87 0c3.82,0 13.15,1.59 15.43,3.04 5.15,3.3 4.94,23.25 5.29,29.89 0.16,3.08 -0.95,3.53 -0.36,7.95 1.55,11.64 -0.14,12.49 -0.26,21.26 -0.04,2.88 0.55,4.72 0.62,6.06 0.16,2.72 -0.57,2.51 -0.57,5.69 0,3.49 0.61,3.74 0.67,5.96l-0.67 16.72c0,12.14 -0.08,45.67 -2.14,57.48 -2.9,16.64 -10.34,12.21 -44.88,12.21l-35.78 0.21c-2.31,-0.07 -2.69,-0.05 -4.93,0.09l-51.65 -0.3c-1.16,-4.96 -1.68,-23.98 -1.68,-31.07 -0,-7.16 0.89,-10.99 0.85,-17.62zm-17.64 -5.05l0 37.79c-0.02,12.16 -0.6,22.88 7.38,29.56 2.71,2.27 5.98,3.14 9.63,3.81 11.79,2.15 53.25,2.85 64.67,1.29 13.23,-1.81 63.64,3.88 77.54,-3.91 9.26,-5.19 12.82,-16.22 14.96,-26.18 0.94,-4.39 0.16,-9.02 0.63,-13.71l0.68 -25.28c-0,-4.48 -0.05,-8.99 -0.02,-13.47 0.01,-2.33 0.2,-4.09 0.36,-6.1l0.12 -10.19c0.32,-18.88 1.14,-38.84 -0.41,-57.61 -0.82,-9.93 1.31,-24.22 -5.77,-34.53 -4.02,-5.86 -8.66,-8.09 -16.29,-9.74 -11.49,-2.48 -50.25,-2.04 -63.68,-1.89 -11.6,0.13 -5.57,1.32 -22.75,0.19 -3.04,-0.2 -5.22,0.7 -10.75,0.69 -8.97,-0.01 -17.93,-0 -26.9,-0.02 -19.53,-0.02 -27.07,3.44 -27.74,26l-1.09 97.4c-0,2.13 -0.57,2.6 -0.57,5.91z"/>
   <path class="fil0" d="M540.21 64.4c2.33,14.42 -1.08,24.28 -11.36,34.49 -8.41,8.35 -23.91,9.57 -2.87,20.05 10.68,5.32 20.69,18.72 20.69,32.2 0,23.42 -11.17,36.55 -30.22,42.83 -3.47,1.14 -5.42,1.73 -9.37,2.39 -5.69,0.94 -3.22,1.31 -8.72,1.35 -11.97,0.08 -31.47,0.45 -46.57,0.45 -16.72,0 -30.49,-0.84 -47.02,-0.84 0,-2.22 0.41,-4.07 0.46,-5.18 0.08,-1.76 -0.05,-1.54 -0.05,-3.74l0.43 -118.71c0,-3.78 -0.68,-2.4 -0.44,-5.57l-0.4 -33.89 8.99 -0.47c18.34,-1.48 92.55,-0.38 106.08,6.31 5.46,2.7 9.98,5.95 13.54,10.81 3.68,5.02 5.59,9.87 6.83,17.52zm-152.23 59.03l0.54 40.69c1.76,27 -8.27,50.61 21.26,50.87l18.25 0.29c4.45,-0.2 2.77,0.52 6.13,0.52 4.35,0 5.01,-0.9 8.35,-0.8 5.62,0.16 1.38,0.81 11.16,0.41l17.8 0.15c1.56,-0.06 3.38,0.2 6.3,0.25 10.08,0.17 21.45,0.35 30.25,-0.88 16.65,-2.32 40.63,-14.98 47.29,-29.12 8.11,-17.21 11.68,-28.94 5.83,-49.13l-4.88 -10.24c-6.44,-10.03 -12.97,-13.97 -14.63,-16.44 1.14,-4.28 16.79,-13.39 16.79,-36.94 0,-13.84 -4.76,-28.69 -12.39,-37.15 -6.46,-7.16 -6.85,-7.97 -16.51,-13.72 -6.49,-3.86 -22.35,-7.95 -32.37,-7.93 -9.36,0.01 -18.44,-1.19 -27.84,-0.96 -3.37,0.08 -4.73,-0.69 -9.14,-0.69 -19.25,0 -42.59,-0.52 -60.5,2.48 -13.87,2.32 -11.54,13.95 -11.47,23.69 0.01,1.07 -0.33,2.26 -0.12,4.72 1.01,11.97 0.32,13.93 0.46,23.56 0.01,0.79 0.22,3.04 0.26,4.27 0.33,11.52 -0.9,22.11 -0.85,31.11 0.04,7 0.01,14 0.01,21z"/>
   <path class="fil0" d="M594.54 78.93c-0.2,-3.8 -0.87,-4.59 -0.87,-9.2l-0 -31.97c-0.18,-11.04 -1.05,-6.57 21.05,-7.03 1.96,-0.04 -0.53,0.18 2.46,0.07 12.72,-0.46 9.91,0.27 18.5,0.27l-0.03 68.04c0.01,5.49 0.91,8.09 0.87,14.24 -0.03,6.53 0.17,39.96 2.02,43.32 2.64,4.77 7.54,3.79 12.95,3.95l49.68 -0.25 0.02 15.92c0.29,25.42 -2.42,19.78 -6.77,19.57 -4.21,-0.21 -11.12,1.25 -17.37,0.4l-47.84 -0.13c-7.19,0.68 -0.82,0.11 -4.94,-0.17l-18.23 0.33c-1.31,0.07 -2.49,0.19 -3.9,0.21 -2.79,0.05 -5.65,-0.01 -8.45,-0.01 -2.17,-9.3 0.14,-39.84 0.84,-52.9l-0 -32.75 0 -31.91zm-16.8 -4.19l-0.84 90.68c0.03,7.59 0.57,17.86 -0.04,25.15 -2.44,29.11 16.15,24.31 36.23,23.72l10.84 0.67c13.67,0 31.74,-1.45 43.08,-0.2 4.66,0.51 2.87,-0.64 6.46,-0.64 3.58,0 3.54,1.05 7.3,0.64 26.9,-2.91 37.22,4.63 37.2,-23.31l0.37 -33.11c-0.92,-6.31 -0.18,-9.51 -4.52,-12.28 -7.89,-5.04 -54.66,-1.11 -60.5,-2.47l-0.43 -17.29c-0.44,-6.14 -0.17,-12.44 -0.54,-18.69 -0.17,-2.97 -0.2,-0.71 -0.11,-3.11 0.5,-12.5 -1.11,-11.93 -0.3,-23.47l-0.31 -47.42c0.04,-15.03 -1.03,-19.31 -20.15,-19.31l-38.63 0c-6.59,0 -10.41,1.93 -12.91,6.4 -5.37,9.62 -2.21,40.61 -2.21,54.05z"/>
   <path class="fil0" d="M808.65 100.76c3.77,0 6.25,-0.61 8.48,-0.67l11.68 0.67 -0.84 25.19 -19.31 0 0 -25.19zm-0.84 42.82l27.69 -0.85c12.13,-0.94 8.08,-15.56 9.48,-25.79 1.14,-8.31 0.58,-15.17 0.12,-22.66 -0.88,-14.37 -7.05,-11.16 -35.62,-11.16 -24.72,0 -14.75,8.69 -17.87,30.84 -0.71,5.07 -0.35,14.08 0.22,21.23 0.6,7.63 7.88,8.38 15.97,8.38z"/>
   <path class="fil0" d="M273.07 102.54c0.93,-1.95 1.06,-1.72 4.64,-0.82 4.73,1.19 11.5,3.61 17.07,4.07 0,8.76 -4.64,20.42 -5.04,25.19 -6.06,0 -18.3,-3.9 -21.83,-4.2l5.16 -24.25zm-23.63 30.12c0,4.94 3.66,6.91 7.88,8.07 6.63,1.84 35.48,9.13 39.08,8.67 8.53,-1.08 12.87,-30.47 15.39,-40.88 3.08,-12.74 3.37,-14.57 -18.61,-19.6 -35.91,-8.22 -29.6,-14.61 -41.04,29.64 -1.28,4.95 -2.7,8.02 -2.7,14.1z"/>
   <path class="fil0" d="M468.59 142.74c0,-2.79 1.47,-2.34 4.09,-2.7 5.77,-0.8 11.02,-0.11 11.02,6.9 0,6.05 -12.07,5.04 -15.11,5.04l0 -9.24zm-16.79 -13.43c0,40.29 -5.5,38.62 23.51,38.62 9.07,0 16.73,-4.98 20.99,-11.76 7.07,-11.24 -0.33,-31.06 -16.79,-31.06l-23.51 0c-1.96,0 -4.2,2.24 -4.2,4.2z"/>
   <path class="fil0" d="M84.86 93.2c-2.2,0 -0.84,-6.61 -0.84,-13.43 3.25,0.76 11.76,-0.22 11.76,5.04 0,6.25 -2.69,8.4 -10.92,8.4zm-17.63 -20.99l0 29.39c0,12.18 28.21,7.61 35.29,2.55 11.43,-8.18 12.89,-25.36 1.42,-35.06 -7.21,-6.1 -16.79,-5.27 -26.64,-5.27 -6.95,0 -10.08,1.33 -10.08,8.4z"/>
   <path class="fil0" d="M468.59 74.73l5.04 0c2.99,0 6.72,0.41 6.72,3.36l0 2.52c0,4.27 -6.82,5.88 -11.76,5.88l0 -11.76zm-15.11 -14.28c-3,6.25 -1.68,26.44 -1.68,36.11 0,9.58 31.5,2.9 32.69,2.47 16.66,-6.07 15.96,-35.56 -3.52,-39.19 -1.78,-0.33 -6.6,-0.72 -7.62,-0.83 -1.86,-0.2 -1.73,-0.09 -3.43,-0.05 -6.02,0.14 -9.54,-0.11 -16.44,1.5z"/>
  </g>
 </g>
</svg>
