<?xml version="1.0" encoding="UTF-8"?>
<!DOCTYPE svg PUBLIC "-//W3C//DTD SVG 1.1//EN" "http://www.w3.org/Graphics/SVG/1.1/DTD/svg11.dtd">
<!-- Creator: CorelDRAW 2021 (64-Bit) -->
<svg xmlns="http://www.w3.org/2000/svg" xml:space="preserve" width="87.4041mm" height="23.111mm" version="1.1" style="shape-rendering:geometricPrecision; text-rendering:geometricPrecision; image-rendering:optimizeQuality; fill-rule:evenodd; clip-rule:evenodd"
viewBox="0 0 1108.73 293.17"
 xmlns:xlink="http://www.w3.org/1999/xlink"
 xmlns:xodm="http://www.corel.com/coreldraw/odm/2003">
 <defs>
  <style type="text/css">
   <![CDATA[
    .fil0 {fill:#FEFEFE}
   ]]>
  </style>
 </defs>
 <g id="Layer_x0020_1">
  <metadata id="CorelCorpID_0Corel-Layer"/>
  <g id="_1831002421168">
   <path class="fil0" d="M432.7 42.18c-15.63,0.77 -28.69,-8.72 -47.08,-12.48 -18.1,-3.71 -37.96,-4.06 -57.14,-3.41 -61.31,2.08 -48.94,16.08 -78.73,40.77 -19.32,1.77 -30.57,-2.89 -50.64,3.75 -20.07,6.64 -17.45,16.15 -38.31,7.62 -3.13,-26.04 2.98,-54.07 -20.62,-65.07 -13.26,-6.18 -26.26,-3.58 -38.27,1.34 -17.61,7.23 -18.99,3.18 -37.08,7.04 -47.14,10.07 -61.68,63.68 -50.63,117.83 7.19,35.24 -10.17,2.99 -12.91,70.21 -1.34,32.98 -5.84,55.09 16.22,71.37 9.29,6.86 21.83,10.2 35.97,6.91 22.03,-5.11 10.86,-3.61 35.46,-2.88 37.79,1.13 42.48,-15.73 66.2,-23.15 18.8,5.71 24.76,18.39 50.79,23.02 31.3,5.58 39.16,-0.96 62.06,-10.16 11.21,-4.51 47.76,1.23 65.43,-0.03 32.58,-2.31 33.79,-17.48 52.9,-3.28 16.2,12.04 32.94,17.61 57.23,12.03 48.03,-11.02 27.81,-57 99.73,-33.28 23.01,7.59 45.78,0.54 69.05,3.39 25.64,28.66 23.85,26.65 72.52,26.5 68.88,-0.21 46.67,-10.55 75.67,-23.09 13.95,6.75 17.46,16.76 38.3,24.6 43.24,16.27 77,-7 82.18,-7.35 9.36,-0.63 10.19,5.92 23.16,8.7 19.97,4.29 42.27,0.46 62.19,-1.02 4.48,-0.33 71.06,21.44 114.05,4.83 15.9,-6.14 28.28,-16.72 28.31,-39.34 0.03,-26.59 -13.4,-29.07 -26.04,-40.99 -4.18,-19.15 -1.47,-99.93 0.47,-122.73 9.84,-9.11 21.34,-12.11 22.26,-34.91 0.74,-18.44 -8.49,-30.9 -21.13,-36.88 -24.82,-11.75 -81.61,-5.77 -102.16,6.33 -27.88,16.41 -62.97,-7.67 -93.45,16.81 -13.06,10.49 -13.91,21.24 -33.65,22.81 -10.36,0.82 -16.52,-1.18 -27.7,0.98 -13.25,2.56 -9.28,6.11 -25.18,4.82 -23.34,-40.21 10.3,-41.46 -101.52,-40.5 -16.98,0.14 -87.69,0.43 -102.38,5.21 -13.25,4.32 -12.31,9.71 -23.74,13.02 -28.06,-21.66 -7.43,-45.54 -69.53,-40.98 -55.45,4.07 -55.8,17.26 -72.28,41.62zm571.03 75.85l-33.29 2.28c-0.11,-39.02 -1.93,-30.56 8.38,-42.41 40.37,-46.38 -69.35,-47.14 -81.02,-26.76 -8.33,25.24 5.2,19.38 11.19,35 4.46,11.63 1.36,35.54 0.93,49.07 -1.44,46.14 6.33,78.3 -13.3,90.55 4.65,-22.99 10.35,-33.03 -6.82,-47.55 -28.47,-3.35 -24.82,15.66 -39.92,23.71 -40.44,21.55 -46.62,-58.57 -19.99,-71.16 19.95,-9.43 22.2,13.32 47.3,13.61 21.63,-12.32 25.14,-59.37 9.57,-75.93 -26.9,-5.03 -16.82,3.6 -29.63,7.44 -8.07,2.42 -24.1,-2.94 -36.18,-1.19 -25.97,3.77 -35.11,20.52 -47.7,31.65 10.45,-77.43 9.77,-68.94 -85.24,-67.02 -26.91,0.54 -69.52,-0.31 -92.28,5.94 -7.31,16.36 -6.68,101.7 34.16,81.91 14.72,-7.13 5.79,-18.48 13.98,-29.97l11.84 0.04c4.31,18.65 2.69,94.88 -3.28,117.17 -0.29,1.06 -1.35,1.36 -1.74,1.7 -30.6,26.24 -16.09,43.58 18.24,43.97 33.07,0.37 74.53,9.5 68.85,-31.43 -9.61,-11.65 -9.84,-6.56 -21.12,-15.76 -1.94,-21.03 -4.45,-99.56 2.89,-113.66 18.55,1.9 6.09,11.21 21.92,19.4 11.42,5.91 21.77,0.74 27.77,-5.35 -8.29,31.39 -30.2,81.86 8.01,126.99 25.28,29.86 86.06,38.41 108.17,-0.69 19.61,18.63 -8.83,26.09 67.66,24.74 39.03,-0.69 38.38,-29.43 14.9,-43.7l-0.25 -42.74 35.8 -2.27c1.08,10.65 2.01,39.75 -1.44,48.73 -5.55,14.45 -19.54,5.73 -13.19,34.84 8.1,14.61 122.05,21.74 94.71,-25.28 -17.05,-29.3 -21.83,29.95 -18.86,-128.35 0.18,-9.59 -0.98,-21.65 3.49,-29.38 6.13,-10.59 13.64,-5.42 15.19,-24.15 2.48,-30.1 -23.29,-25.91 -48.58,-25.88 -79.9,0.12 -31.73,40.82 -29.81,54.16 1.13,7.84 -0.45,29.19 -1.29,37.72zm-521.8 -49.74l-32.53 107.75c-4.25,10.39 -17.62,19.04 -23.89,24.8l-18.63 -47.52c16.75,-15.24 35.07,-29.53 29.85,-63.39 -9.12,-59.07 -105.06,-52.28 -139,-43.56 -19.27,4.95 -42.98,25.3 -4.74,46.99 0.64,22.82 -0.05,46.19 -0.12,69.08 -0.07,22.43 5.77,47.43 -11.65,56.9 1,-16.71 1.74,-36.82 -18.69,-35.31 -19.23,1.43 -13.72,24.22 -37.66,20.39 -28.25,-4.53 -28.97,-56.78 -6.63,-73.54 23.94,-2.42 18.26,12.25 41.5,12.17 11.01,-10.88 21.67,-36 8.33,-52.54 -4.41,-5.47 -102.86,-46.14 -116.54,75.79 -11.42,-13.91 -13.07,-22.35 -27.74,-32.43 -13.67,-9.39 -31.03,-14.13 -41.07,-22.11 -16.93,-13.44 -4.65,-35.31 13.32,-26.33 17.68,8.83 3.25,29.44 38.21,26.84 16.41,-26.15 21.93,-90.06 -12.48,-83.63 -13.48,2.52 -9.87,8.13 -19.23,8.46 -6.87,0.24 -41.23,-14.07 -66.15,19.22 -22.59,30.18 -15.99,69.4 6.74,92.01 8.64,8.59 85.67,42.39 43.03,59.32 -35.86,9.21 -27.36,-47.68 -60.62,-33.32 -10.73,6.79 -19.56,82.53 -0.47,93.3 22.85,11.17 17.44,-5.33 37.81,-3.96 66.87,4.5 53.74,1.34 92.29,-44.7 14.36,20.05 21.48,37.6 50.98,44.09 36.03,7.92 52.44,-9.38 69.29,-25.29 8.5,24.01 26.13,21.89 66.93,16.96 29.62,-3.58 39.88,-25.38 8.45,-41.22l-0.83 -38.81c15.07,5.35 16.92,23.02 22.12,38.75 5.14,15.54 11.14,29.62 20.56,39.33 10.87,11.19 28.12,16.27 47.77,9.07 16.37,-6 21.89,-14.32 27.09,-32.69 67.58,-2.34 39.84,-23.28 38.15,-43.67l39.27 -0.41c3.06,16.56 -22.69,41.55 8.64,48.54 16.45,3.67 57.13,1.59 69.69,-6.69 6.54,-4.31 13.43,-12.85 9.66,-24.97 -4.7,-15.12 -12.82,-8.04 -23.23,-17.97 -12.45,-11.88 -54.39,-154.69 -72.35,-164.13 -8.21,-4.31 -89.02,-9.76 -79.87,31.7 3.05,13.81 12.22,11.8 24.43,16.71z"/>
   <path class="fil0" d="M293.57 66.91c3.39,9.69 0.49,4.74 15.6,13.73l1.23 126.21c-2.15,27.52 -10.11,12.67 -13.55,30.7l50.47 -1.19c-4.67,-8.94 -5.75,-4.5 -11.35,-11.88 -7.58,-10 -4.79,-33.57 -4.09,-46.5 0.7,-12.91 -0.68,-11.86 5.98,-19.13 33.08,-16.97 43.81,28.48 52.18,52.48 20.1,57.58 54.17,31.66 57.3,18.32 -30.16,-5.02 -30.49,0.85 -42.12,-30.45 -5.16,-13.89 -20.38,-45.52 -20.89,-56.7 30.82,-11.01 51.66,-52.47 16,-73.94 -24.97,-15.04 -80.85,-11.17 -106.8,-1.67zm40.69 67.94c18,2.55 38.62,-1.31 50.43,-10.76 41.34,-33.09 -31.76,-66.74 -49.47,-46.66 -5.66,6.42 -2.2,48.69 -0.96,57.42zm15.1 -17.63c7.67,1.09 16.45,-0.56 21.48,-4.58 17.61,-14.1 -13.53,-28.43 -21.08,-19.88 -2.41,2.73 -0.94,20.74 -0.41,24.46z"/>
   <path class="fil0" d="M954.18 135.88c-3.77,-12.65 -4.72,-49.37 2,-61.66 6.85,-12.52 6.47,0.51 9.13,-15.3l-48.9 -0.29c-0.37,19.72 12.78,0.84 12.2,40.65l-1.44 107.47c-0.59,24.92 -10.12,22.43 -15.59,37.99l54.61 0.35c-7.55,-18.04 -15.49,-4.01 -16.42,-31.95 -1.78,-53.44 -5.83,-53.4 51.22,-56.49 26.9,-1.46 21.3,4.7 20.84,53.25 -0.37,38.87 -8.25,21.78 -15.7,40.81l57.01 -1.74c-13.38,-27.97 -18.74,26.09 -18,-102.29 0.7,-123.01 15.91,-73.15 20.2,-99.91 -16.12,-4.87 -39.34,-3.49 -56.17,-1.14 3.6,22.15 18.99,-2.92 13.33,72.96 -1.43,19.12 -7.91,16.57 -25.9,18.11 -14.86,1.27 -28.77,4.32 -42.41,-0.83z"/>
   <path class="fil0" d="M477.34 45.78c17.09,11.66 33.04,-4.45 21.54,31.38l-36.59 114.91c-6.82,10.69 -9.43,5.57 -14.74,17.57l44.99 -0.1c-5.48,-20.31 -13.17,-12.05 0.42,-40.16l63.91 -2.62c1.49,5.3 8.41,20.76 9.16,25.74 2.41,16.07 -5.01,8.32 -7.58,22.91 17.52,0.4 43.5,1.87 55.71,-6.47 -16.35,-16.92 -10.84,12.01 -33.17,-43.54l-45.6 -115.2c-6.29,-15.44 -8.67,-16 -27.03,-14.69 -14.99,1.07 -25.85,1.06 -31.03,10.27zm64.82 100.04c4.52,-16.3 -11.46,-56.25 -21.25,-63.91 -10.16,7.33 -15.45,33.64 -19.39,48.8 -6.98,26.85 21.38,21.37 40.64,15.11zm-13.67 -12.62c1.41,-5.09 -3.59,-17.59 -6.64,-19.98 -3.18,2.29 -4.83,10.52 -6.06,15.26 -2.18,8.39 6.69,6.68 12.71,4.72z"/>
   <path class="fil0" d="M614.7 60.09l-1.93 5.33c-2.29,12.84 1.26,35.19 6.61,45.37 5.48,-7.95 3.34,-19.42 8.5,-30.31 63.26,-16.6 47.95,11.83 46.95,88.27 -0.16,12.55 0.68,35.03 -1.34,46.47 -3.43,19.36 -12.53,13.03 -19.17,25.09 16.53,3.51 52.83,6.26 65.07,-2.19l-13.71 -8.05c-14.33,-9.93 -8.3,-33.15 -8.03,-61.32 0.9,-95.18 -4.72,-89.88 41.35,-87.96 6.24,10.67 2.86,16.53 14.92,21.22l5.63 -44.18c-16,-3.04 -129.9,-1.01 -144.85,2.26z"/>
   <path class="fil0" d="M114.17 59.58c-9.45,-1.33 -59.46,-25.33 -71.44,25.24 -9.3,39.23 15.29,55.36 40.34,67.77 65.07,32.24 23.09,89.99 -20.12,70.53 -14.71,-6.63 -17.61,-17.53 -27.35,-28.64 -1.9,15.98 -6.56,43.37 -0.19,55.95 4.93,1.6 -1.67,2.44 3.99,-2.47 8.27,-7.17 -5.16,-3.03 8.93,-6.27 12.73,-2.94 41.22,21.3 72.2,-6.7 27.23,-24.6 20.2,-64.94 -4.19,-84.26 -20.95,-16.6 -66.86,-22.62 -59.96,-60.59 2.85,-15.67 16.1,-27.11 35.17,-24.98 26.31,2.93 22.72,22.09 33.41,26.06 3.08,-13.99 5.34,-30.63 1.17,-44.17 -4.51,3.13 -8.27,8.37 -11.96,12.53z"/>
   <path class="fil0" d="M861.43 99.77c-14.32,-2.96 -46.67,-22.1 -71.48,16.44 -13.75,21.36 -20.67,54.07 -13.36,83.58 16.58,66.95 104.79,61.97 106.27,-2.2 -18.73,5.23 -16.42,31.09 -52.62,25.05 -43.47,-7.25 -42.95,-79.84 -15.14,-103.43 25.28,-21.43 44.2,3.29 57.49,7.03 4.29,-12.86 6,-27.78 3.65,-41.52 -9.07,4.13 -6.8,8.09 -14.81,15.03z"/>
   <path class="fil0" d="M263.75 204.96l-10.63 8.25c-51.4,43.36 -95.32,-53.32 -51.68,-92.82 22.34,-20.23 34.86,-0.06 51.59,4.19l1.64 -20.02c-65.12,-20.4 -89.48,21.88 -84.83,86.44 4.73,65.66 87.83,79.16 93.92,13.97z"/>
  </g>
 </g>
</svg>
