<?xml version="1.0" encoding="UTF-8"?>
<!DOCTYPE svg PUBLIC "-//W3C//DTD SVG 1.1//EN" "http://www.w3.org/Graphics/SVG/1.1/DTD/svg11.dtd">
<!-- Creator: CorelDRAW 2021 (64-Bit) -->
<svg xmlns="http://www.w3.org/2000/svg" xml:space="preserve" width="73.0341mm" height="23.196mm" version="1.1" style="shape-rendering:geometricPrecision; text-rendering:geometricPrecision; image-rendering:optimizeQuality; fill-rule:evenodd; clip-rule:evenodd"
viewBox="0 0 791.61 251.42"
 xmlns:xlink="http://www.w3.org/1999/xlink"
 xmlns:xodm="http://www.corel.com/coreldraw/odm/2003">
 <defs>
  <style type="text/css">
   <![CDATA[
    .fil0 {fill:white}
   ]]>
  </style>
 </defs>
 <g id="Layer_x0020_1">
  <metadata id="CorelCorpID_0Corel-Layer"/>
  <g id="_1795529003232">
   <path class="fil0" d="M35.82 134.34c-1.88,-1.88 -4.34,-3.32 -5.07,-6.05 1.15,-1.41 66.74,-0.65 73.93,-0.65 2.59,0 5.41,5.77 6.58,7.81l25.35 44.65c1.89,3.12 3.33,6.02 5.23,9.16 1.1,1.81 4.28,7.24 4.7,9.04 -1.66,-0.39 -3.13,-0.84 -4.58,-1.31l-35.99 -10.46c-1.36,-0.44 -2.97,-0.92 -4.49,-1.4 -21.53,-6.83 -20.25,-3.13 -34.18,-18.16l-5.11 -5.36c-0.14,-0.13 -0.53,-0.51 -0.66,-0.65l-25.73 -26.61zm95.68 -21.1c0,-1.42 28.57,-47.34 29.06,-48.14 1.74,-2.83 7.53,-13.78 10.85,-14.67 0.05,2.39 1.32,6.3 1.96,8.5l4.66 16.27c0.33,1.13 0.62,2.8 1.05,4.18l9.99 35.15c0,4.26 -3.02,13.86 -4.5,18.4 -1.71,5.26 -3.13,11.29 -4.52,16.41 -2.96,10.92 -6.7,22.08 -9.3,33.22 -2.12,-0.57 -2.44,-1.88 -3.49,-3.71l-26.48 -46.79c-2.69,-4.44 -9.28,-14.62 -9.28,-18.85zm-98.78 -9.81c-6.93,0 10.36,-14.23 12.74,-16.7l7.39 -7c8.15,-8.04 15.81,-15.77 23.85,-23.9 4.38,-4.44 30.22,-10.66 35.65,-12.11l18.73 -5.47c4.99,-1.36 14.69,-4.81 18.74,-4.81 -0.63,2.38 -4,6.61 -5.45,8.95l-16.43 26.75c-3.73,6.24 -7.27,11.67 -10.96,17.82l-8.36 13.23c-0.94,1.39 -1.49,3.25 -3.3,3.25l-72.62 0zm167.92 6.33c1.19,-1.99 1.99,-3.3 3.2,-5.3 6.87,-11.42 6.12,-10.09 4.15,-18.63l-5.96 -23.48c-0.51,-1.84 -0.86,-3.25 -1.48,-5.72l-11.95 -46.27c-0.84,-4.19 -1.51,-10.28 -4.11,-10.28 -16.95,0 -20.97,-0.92 -37.14,4.08l-38.75 10.97c-5.37,1.76 -14.72,3.71 -19.01,5.85 -3.83,1.91 -5.07,5.35 -7.42,8.93 -1.31,1.99 -1.93,3.25 -3.26,5.24 -7.86,11.75 -5.18,11.48 -13.47,11.39 -5.07,-0.06 -11.53,-0.7 -15.48,0.87 -3.61,1.43 -4.18,2.92 -6.97,5.46l-6.43 6c-0.91,0.84 -1.1,0.99 -1.99,1.94l-10.52 10.41c-2.93,2.95 -5.5,4.84 -8.51,7.85l-14.29 13.85c-1,1.29 -1.25,1.62 -1.25,3.33l0 39.25c0,1.72 0.19,1.79 0.97,2.96l2.26 2.32c7.83,7.35 18.56,19.45 26.38,27.27 5.33,5.33 10.26,10.57 15.68,15.72 3.81,3.61 6.14,2.77 12.94,2.76 5.02,-0 10.03,0 15.05,0l8.45 15.1c3.3,6.57 4.17,9.93 11.53,12.02l36.36 10.75c26.83,8.31 24.14,5.97 54.87,5.97 2.52,0 2.02,-2.79 2.61,-5.24l4.73 -16.86c0.22,-0.88 0.35,-1.95 0.69,-3.23l16.34 -59.55c0.6,-1.94 1.14,-3.82 1.14,-6.06 0,-1.47 -9.93,-19.83 -12.43,-23.55l3.06 -6.1z"/>
   <path class="fil0" d="M420.09 201.24c12.52,0 9.85,-11.04 9.85,-23.28 0,-10.74 0,-21.48 0,-32.23 0,-13.82 0.42,-29.35 10.57,-37.77 7.15,-5.93 17.07,-7.34 25.4,-2.67 1.91,1.07 3.12,1.91 4.49,3.56 2.15,2.59 3.99,7.15 4.78,10.44 2.16,9.05 1.31,49.16 1.31,61.36 0,11.51 -2.23,20.59 9.85,20.59 29.02,0 26.86,2.05 26.86,-23.28 0,-5.38 0.01,-10.75 -0.01,-16.13 -0.01,-2.99 0.12,-4.88 0.39,-7.67 0.43,-4.33 -0.38,-2.12 -0.38,-6.64l0.04 -32.26c-0.32,-27.06 -17.82,-47.41 -46.59,-47.41 -17.82,0 -27.55,2.69 -40.29,16.11 0,-6.62 -1.63,-11.64 -8.06,-11.64 -19.47,0 -27.75,-3.06 -27.75,12.53l0 99.37c0,20.16 6.06,17.01 29.54,17.01z"/>
   <path class="fil0" d="M731.6 137.65c-2.48,7.47 -2.11,8.12 -5.34,8.98l-21.35 -59.22c-2.61,-7.39 -3.84,-15.98 -10.87,-15.98l-25.07 0c-3.62,0 -6.27,1.95 -6.27,5.37 0,5.64 24,62.92 27.62,72.65 1.96,5.27 3.63,9.07 5.64,14.05l4.31 10.91c1.66,4.52 6.29,14.16 6.29,17.88 0,3.29 -23.28,50.32 -23.28,51.92 0,9.94 27.2,6.95 33.05,6.19 5.55,-0.73 6.61,-4.64 8.22,-7.9l10.6 -22.53c9.18,-18.24 44.08,-106.86 54.24,-133.76 2.36,-6.24 2.22,-3.02 2.22,-5.84 0,-4.94 0.59,-8.95 -10.74,-8.95 -7.96,0 -22.3,-1.48 -25.89,3.65l-23.38 62.56z"/>
   <path class="fil0" d="M258.05 150.21c0,21.94 10.45,47.33 32.44,52.61 13.65,3.28 26.67,3.51 39.5,-3.05 5.25,-2.68 5.77,-3.46 9.61,-6.51 1.06,-0.84 1.54,-1.16 2.61,-1.87 1.1,4.71 3.16,9.85 8.95,9.85 15.02,0 25.07,2.73 25.07,-9.85l0 -110.11c0,-5.34 -1.83,-8.95 -7.16,-8.95 -20.31,0 -29.38,-3.29 -29.6,9.79l0.06 48.4c0,12.75 0.84,19.43 -4.06,28.16 -9.39,16.73 -32.29,16.81 -38.16,-0.27 -3.79,-11.04 -2.54,-47.76 -2.54,-61.92 0,-10.67 2.83,-24.17 -8.06,-24.17 -15.26,0 -28.65,-2.86 -28.65,7.16l0 70.72z"/>
   <path class="fil0" d="M571.38 93.81c0,11.9 14.04,9.85 22.38,9.85 5.15,22.13 -5.05,63.91 6.54,85.66 4.33,8.13 11.21,12.97 19.82,15.1 5.8,1.43 14.43,0.46 21.1,0.42 4.54,-0.02 6.49,-0.86 9.85,-1.79 7.02,-1.94 9.82,-3.61 9.82,-12.56 0,-4.18 0.11,-18.8 -3.58,-18.8 -9.33,0 -25.96,5.91 -25.96,-17.01 0,-9.85 -1.64,-42.98 1.79,-50.13 17.29,0 27.75,3.64 27.75,-12.53 0,-24.58 -1.77,-20.59 -27.75,-20.59 -1.52,-6.51 -0.9,-16.23 -0.9,-24.17 0,-23.46 2.54,-19.69 -29.54,-19.69 -12.39,0 -4.85,20.01 -7.47,38.18 -0.62,4.28 -0.51,6.21 -5.01,6.63 -13.63,1.28 -18.86,-5.95 -18.86,21.43z"/>
   <path class="fil0" d="M527.52 193.18c0,5.5 4.26,8.06 9.85,8.06 11.08,0 27.75,2.51 27.75,-8.06l0 -111.01c0,-2.41 -1.59,-5.72 -2.92,-6.93 -3.26,-2.97 -34.68,-4.72 -34.68,4.24l0 113.69z"/>
   <path class="fil0" d="M526.62 34.73c0,10.17 -2.03,21.86 5.18,25.25 2.83,1.33 30.48,5.04 33.1,-4.88 0.57,-2.17 1.11,-15.57 1.11,-18.58 0,-12.7 -16.83,-10.74 -26.86,-10.74 -6.01,0 -12.53,2.82 -12.53,8.95z"/>
  </g>
 </g>
</svg>
