<?xml version="1.0" encoding="UTF-8"?>
<!DOCTYPE svg PUBLIC "-//W3C//DTD SVG 1.1//EN" "http://www.w3.org/Graphics/SVG/1.1/DTD/svg11.dtd">
<!-- Creator: CorelDRAW 2021 (64-Bit) -->
<svg xmlns="http://www.w3.org/2000/svg" xml:space="preserve" width="93.1761mm" height="17.1083mm" version="1.1" style="shape-rendering:geometricPrecision; text-rendering:geometricPrecision; image-rendering:optimizeQuality; fill-rule:evenodd; clip-rule:evenodd"
viewBox="0 0 8583.86 1576.1"
 xmlns:xlink="http://www.w3.org/1999/xlink"
 xmlns:xodm="http://www.corel.com/coreldraw/odm/2003">
 <defs>
  <style type="text/css">
   <![CDATA[
    .fil0 {fill:#FEFEFE;fill-rule:nonzero}
   ]]>
  </style>
 </defs>
 <g id="Camada_x0020_1">
  <metadata id="CorelCorpID_0Corel-Layer"/>
  <path class="fil0" d="M-0 1235.41l0 -1210.33 395.61 0 233.79 825.49 231.06 -825.49 396.52 0 0 1210.33 -244.11 0 -0.91 -952.82 -257.16 952.82 -253.82 0 -255.95 -952.82 -0.91 952.82 -244.1 0zm1512.02 0l0 -1210.33 264.14 0 0 1210.33 -264.14 0zm515.23 -1210.33l480.32 0c108.39,0 190.98,7.61 247.75,23.1 76.21,20.85 141.79,58.04 196.14,111.56 54.64,53.25 95.94,118.61 124.47,196.09 28.24,77.19 42.51,172.7 42.51,285.96 0,99.73 -13.36,185.38 -40.07,257.51 -32.48,88.18 -78.94,159.46 -139.36,213.84 -45.54,41.41 -107.18,73.53 -184.6,96.63 -57.98,17.19 -135.41,25.64 -232.57,25.64l-494.59 0 0 -1210.33zm264.15 204.54l0 801.25 195.83 0c73.17,0 126,-3.93 158.48,-11.54 42.81,-9.87 78.03,-26.77 105.96,-50.44 28.24,-23.66 51.01,-62.54 68.62,-116.63 17.91,-54.1 26.72,-128.19 26.72,-221.73 0,-93.53 -8.81,-165.1 -26.72,-215.25 -17.61,-50.13 -42.51,-89.02 -74.39,-117.19 -31.88,-27.9 -72.26,-47.05 -121.44,-56.91 -36.44,-7.6 -108.39,-11.55 -215.27,-11.55l-117.8 0zm1042.31 1005.79l0 -1210.33 264.15 0 0 1210.33 -264.15 0z"/>
  <path class="fil0" d="M3827.43 1221.12l0 -1200.19 249.16 0 0 995.64 616.89 0 0 204.55 -866.05 0zm1216.3 -606.86l-213.08 -37.19c24.05,-85.65 65.58,-149.04 124.3,-190.16 58.71,-41.13 146.06,-61.71 261.76,-61.71 105.11,0 183.57,12.11 235.12,36.63 51.26,24.51 87.64,55.5 108.54,93.25 20.9,37.75 31.51,106.78 31.51,207.64l-3.44 270.46c0,76.92 3.72,133.82 11.17,170.45 7.44,36.63 21.47,75.78 42.1,117.49l-233.69 0c-6.02,-15.22 -13.75,-37.75 -22.63,-67.62 -3.72,-13.8 -6.59,-22.82 -8.31,-27.04 -40.09,38.87 -83.05,67.89 -128.87,87.33 -45.82,19.44 -94.5,29.3 -146.34,29.3 -91.36,0 -163.53,-24.51 -216.23,-73.53 -52.7,-48.73 -79.04,-110.72 -79.04,-185.66 0,-49.31 12.03,-93.53 36.09,-132.41 24.05,-38.6 57.56,-68.47 101.09,-89.03 43.25,-20.57 105.69,-38.6 187.31,-54.1 109.97,-20.28 186.43,-39.44 228.82,-56.91l0 -23.38c0,-45.08 -11.17,-77.19 -33.51,-96.63 -22.63,-19.15 -65.01,-28.74 -127.16,-28.74 -42.09,0 -74.74,8.18 -98.23,24.8 -23.77,16.33 -42.67,45.36 -57.27,86.77zm316.17 187.63c-30.07,9.87 -77.9,21.7 -143.48,35.51 -65.3,13.8 -108.27,27.32 -128.3,40.29 -30.65,21.7 -46.11,48.74 -46.11,81.7 0,32.69 12.31,60.57 36.94,84.24 24.63,23.67 55.84,35.5 93.93,35.5 42.39,0 83.06,-13.8 121.72,-41.12 28.35,-21.13 47.24,-46.49 56.12,-76.92 6.02,-19.72 9.17,-57.48 9.17,-112.97l0 -46.21zm441.91 475.01l269.77 32.11c4.58,31.27 14.9,52.69 30.94,64.52 22.63,16.61 57.85,25.07 105.96,25.07 61.58,0 107.69,-9.01 138.61,-27.32 20.63,-12.11 36.37,-31.55 46.97,-58.6 7.16,-19.16 10.88,-54.94 10.88,-106.5l1.14 -128.19c-71.02,95.52 -160.37,143.13 -268.06,143.13 -119.71,0 -214.8,-49.87 -284.68,-149.32 -54.99,-78.61 -82.48,-176.65 -82.48,-293.58 0,-147.06 36.09,-259.19 107.97,-336.67 71.89,-77.48 161.52,-116.35 268.63,-116.35 110.26,0 201.34,47.62 272.93,142.84l0 -124.24 219.95 0 0 786.59c0,103.4 -8.59,180.88 -26.05,231.87 -17.18,51.28 -41.53,91.28 -73.04,120.58 -31.21,29.02 -73.03,52.12 -125.44,68.47 -52.4,16.62 -118.57,24.79 -198.47,24.79 -151.21,0 -258.33,-25.64 -321.62,-76.63 -63.29,-51.28 -94.8,-115.8 -94.8,-194.4 0,-7.61 0.29,-17.18 0.87,-28.17zm211.35 -512.2c0,92.97 18.33,160.88 54.69,203.98 36.66,43.11 81.91,64.79 135.46,64.79 57.28,0 105.97,-22.25 145.49,-66.49 39.81,-44.23 59.57,-109.59 59.57,-196.36 0,-90.72 -18.9,-158.05 -56.99,-202 -37.81,-43.95 -85.92,-65.93 -144.06,-65.93 -56.42,0 -102.82,21.7 -139.48,64.8 -36.36,43.11 -54.69,108.75 -54.69,197.21zm1376.11 179.18l235.41 38.89c-30.07,84.8 -77.9,149.32 -142.9,193.83 -65.3,44.23 -146.92,66.49 -244.58,66.49 -154.94,0 -269.78,-49.87 -343.95,-149.6 -58.71,-80.01 -88.21,-180.87 -88.21,-302.86 0,-145.37 38.66,-259.48 115.71,-341.74 77.04,-82.55 174.69,-123.69 292.68,-123.69 132.31,0 236.84,43.11 313.59,129.32 76.47,86.21 113.13,218.35 109.69,396.41l-589.39 0c1.71,68.73 20.62,122.27 56.99,160.58 36.09,38.31 81.34,57.48 135.18,57.48 36.94,0 67.88,-9.87 92.79,-29.58 25.21,-19.72 44.11,-51.56 57,-95.52zm13.75 -234.97c-1.72,-67.33 -19.2,-118.61 -52.7,-153.54 -33.52,-35.21 -74.18,-52.69 -122.3,-52.69 -51.27,0 -93.65,18.6 -127.16,55.51 -33.5,36.91 -49.83,87.34 -49.25,150.73l351.4 0zm342.24 265.39l237.13 -35.5c10.02,44.79 30.36,78.89 61.28,101.98 30.65,23.39 73.89,34.94 129.17,34.94 61,0 106.82,-10.99 137.75,-32.97 20.63,-15.5 30.94,-36.34 30.94,-62.26 0,-17.47 -5.73,-32.11 -16.9,-43.67 -11.75,-10.99 -38.09,-21.42 -78.76,-30.71 -190.45,-41.41 -311.02,-79.16 -362,-113.25 -70.73,-47.62 -105.97,-113.54 -105.97,-197.78 0,-76.34 30.65,-140.3 91.66,-192.14 61,-51.85 155.51,-77.76 283.52,-77.76 121.99,0 212.78,19.72 272.06,58.89 59.28,39.44 100.24,97.48 122.58,174.39l-221.67 40.57c-9.45,-34.38 -27.78,-60.86 -54.41,-79.17 -26.63,-18.31 -64.73,-27.32 -114.26,-27.32 -62.44,0 -107.11,8.45 -134.33,25.64 -18.04,12.11 -26.92,27.89 -26.92,47.05 0,16.62 7.74,30.71 23.48,42.26 21.48,15.5 95.08,37.19 221.09,65.36 126.02,28.17 213.93,62.54 263.77,103.4 49.54,41.12 74.17,98.89 74.17,172.7 0,80.29 -34.08,149.6 -102.53,207.36 -68.15,57.75 -169.25,86.77 -303.29,86.77 -121.43,0 -217.66,-24.23 -288.68,-72.4 -70.73,-48.18 -117.14,-113.54 -138.9,-196.37z"/>
  <path class="fil0" d="M4804.03 213.37l0 -209.85 28.25 0 0 209.85 -28.25 0zm280.22 0l0 -209.85 28.95 0 111.74 164.72 0 -164.72 27.06 0 0 209.85 -28.95 0 -111.73 -164.72 0 164.72 -27.07 0zm569.42 -73.62l28.26 7.04c-5.9,22.81 -16.52,40.15 -31.83,52.12 -15.32,11.98 -34.05,17.97 -56.21,17.97 -22.9,0 -41.54,-4.59 -55.92,-13.82 -14.37,-9.18 -25.28,-22.52 -32.76,-39.95 -7.49,-17.49 -11.26,-36.2 -11.26,-56.22 0,-21.83 4.21,-40.89 12.69,-57.15 8.48,-16.27 20.52,-28.62 36.13,-37.08 15.62,-8.45 32.81,-12.65 51.55,-12.65 21.32,0 39.22,5.32 53.69,16.02 14.53,10.7 24.63,25.69 30.34,45.04l-27.67 6.45c-4.9,-15.25 -12.09,-26.38 -21.46,-33.31 -9.37,-6.99 -21.17,-10.46 -35.4,-10.46 -16.31,0 -29.99,3.86 -40.94,11.58 -10.95,7.71 -18.69,18.12 -23.1,31.11 -4.47,13.04 -6.7,26.48 -6.7,40.3 0,17.83 2.63,33.41 7.89,46.69 5.25,13.34 13.42,23.26 24.53,29.86 11.11,6.59 23.1,9.86 36.04,9.86 15.76,0 29.05,-4.49 39.95,-13.43 10.91,-8.98 18.3,-22.27 22.16,-39.95zm405.25 -136.23l28.25 0 0 121.19c0,21.1 -2.43,37.85 -7.24,50.26 -4.85,12.36 -13.58,22.47 -26.17,30.24 -12.64,7.78 -29.15,11.67 -49.66,11.67 -19.88,0 -36.19,-3.36 -48.83,-10.15 -12.69,-6.79 -21.71,-16.56 -27.12,-29.41 -5.4,-12.85 -8.13,-30.38 -8.13,-52.61l0 -121.19 28.26 0 0 121.14c0,18.21 1.73,31.7 5.15,40.3 3.43,8.65 9.28,15.34 17.65,19.98 8.33,4.69 18.54,7.03 30.59,7.03 20.63,0 35.35,-4.63 44.12,-13.87 8.77,-9.28 13.14,-27.06 13.14,-53.43l0 -121.14zm276.75 209.85l0 -209.85 79.91 0c16.26,0 29.3,2.1 39.16,6.35 9.82,4.25 17.49,10.8 23.05,19.64 5.6,8.79 8.37,18.02 8.37,27.69 0,8.94 -2.48,17.39 -7.38,25.31 -4.91,7.91 -12.34,14.31 -22.31,19.2 12.9,3.7 22.81,10.06 29.69,19.04 6.95,8.95 10.41,19.54 10.41,31.76 0,9.87 -2.13,19.01 -6.34,27.45 -4.22,8.45 -9.42,14.95 -15.62,19.54 -6.19,4.54 -13.98,8.01 -23.3,10.35 -9.36,2.35 -20.81,3.52 -34.4,3.52l-81.25 0zm28.25 -121.63l46.05 0c12.49,0 21.47,-0.83 26.87,-2.44 7.19,-2.1 12.58,-5.62 16.2,-10.5 3.62,-4.89 5.45,-10.99 5.45,-18.37 0,-6.98 -1.69,-13.15 -5.1,-18.42 -3.37,-5.32 -8.24,-8.99 -14.53,-10.94 -6.29,-1.95 -17.11,-2.93 -32.37,-2.93l-42.58 0 0 63.6zm0 97.02l53.04 0c9.13,0 15.52,-0.35 19.24,-1.03 6.45,-1.12 11.9,-3.03 16.26,-5.71 4.37,-2.69 7.93,-6.6 10.76,-11.73 2.83,-5.13 4.21,-11.05 4.21,-17.73 0,-7.87 -2.03,-14.66 -6.14,-20.47 -4.06,-5.81 -9.71,-9.86 -16.95,-12.21 -7.19,-2.35 -17.6,-3.52 -31.13,-3.52l-49.28 0 0 72.4zm350.61 24.62l81.7 -209.85 30.98 0 86.75 209.85 -32.12 0 -24.64 -63.6 -89.67 0 -23.1 63.6 -29.89 0zm61.28 -86.17l72.57 0 -22.21 -58.18c-6.69,-17.68 -11.75,-32.29 -15.27,-43.81 -2.93,13.67 -6.84,27.11 -11.75,40.4l-23.34 61.59zm363.09 86.17l0 -209.85 73.37 0c16.55,0 29.2,0.98 37.93,2.98 12.19,2.78 22.61,7.81 31.22,15.05 11.26,9.37 19.63,21.29 25.19,35.85 5.6,14.56 8.37,31.21 8.37,49.92 0,15.93 -1.88,30.04 -5.65,42.35 -3.77,12.32 -8.62,22.52 -14.53,30.59 -5.94,8.06 -12.39,14.41 -19.43,19 -6.98,4.64 -15.47,8.16 -25.38,10.55 -9.96,2.4 -21.37,3.57 -34.25,3.57l-76.84 0zm28.25 -24.62l45.41 0c14.03,0 25.04,-1.27 33.02,-3.86 7.99,-2.6 14.33,-6.21 19.08,-10.9 6.65,-6.6 11.86,-15.49 15.58,-26.62 3.71,-11.14 5.59,-24.62 5.59,-40.49 0,-21.99 -3.67,-38.89 -10.95,-50.71 -7.29,-11.83 -16.16,-19.74 -26.61,-23.74 -7.54,-2.88 -19.69,-4.3 -36.44,-4.3l-44.67 0 0 160.62zm380.56 -77.53c0,-34.78 9.52,-62.03 28.5,-81.71 18.99,-19.69 43.48,-29.51 73.52,-29.51 19.68,0 37.38,4.63 53.19,13.87 15.76,9.23 27.8,22.13 36.09,38.68 8.28,16.51 12.45,35.27 12.45,56.22 0,21.25 -4.37,40.3 -13.09,57.06 -8.72,16.79 -21.06,29.5 -37.03,38.09 -16.01,8.65 -33.27,12.94 -51.76,12.94 -20.07,0 -37.97,-4.78 -53.79,-14.31 -15.76,-9.53 -27.76,-22.52 -35.88,-39.03 -8.13,-16.46 -12.2,-33.9 -12.2,-52.32zm29.15 0.49c0,25.26 6.89,45.14 20.67,59.64 13.78,14.52 31.08,21.79 51.9,21.79 21.22,0 38.62,-7.32 52.35,-21.97 13.68,-14.66 20.53,-35.47 20.53,-62.43 0,-17.04 -2.93,-31.95 -8.78,-44.64 -5.85,-12.7 -14.42,-22.57 -25.68,-29.55 -11.29,-6.99 -23.94,-10.5 -37.96,-10.5 -19.94,0 -37.08,6.74 -51.46,20.22 -14.38,13.48 -21.57,35.95 -21.57,67.45zm414.07 101.66l0 -209.85 94.38 0c19,0 33.41,1.9 43.28,5.67 9.87,3.76 17.74,10.4 23.65,19.93 5.9,9.53 8.83,20.08 8.83,31.61 0,14.9 -4.91,27.45 -14.68,37.66 -9.77,10.21 -24.84,16.66 -45.26,19.44 7.48,3.52 13.14,7.04 17.01,10.46 8.23,7.43 16.01,16.75 23.3,27.94l36.83 57.15 -35.2 0 -28.15 -43.68c-8.18,-12.65 -14.97,-22.27 -20.28,-28.96 -5.35,-6.69 -10.12,-11.33 -14.33,-14.02 -4.16,-2.63 -8.48,-4.49 -12.83,-5.56 -3.18,-0.64 -8.37,-0.98 -15.66,-0.98l-32.62 0 0 93.2 -28.26 0zm28.26 -117.24l60.47 0c12.89,0 22.91,-1.32 30.14,-3.95 7.24,-2.59 12.74,-6.8 16.45,-12.6 3.77,-5.77 5.65,-12.02 5.65,-18.81 0,-9.91 -3.61,-18.12 -10.9,-24.52 -7.29,-6.39 -18.79,-9.57 -34.5,-9.57l-67.32 0 0 69.46zm365.23 117.24l81.71 -209.85 30.98 0 86.75 209.85 -32.12 0 -24.63 -63.6 -89.67 0 -23.1 63.6 -29.89 0zm61.28 -86.17l72.57 0 -22.2 -58.18c-6.7,-17.68 -11.76,-32.29 -15.27,-43.81 -2.92,13.67 -6.84,27.11 -11.75,40.4l-23.34 61.59z"/>
 </g>
</svg>
