<?xml version="1.0" encoding="UTF-8"?>
<!DOCTYPE svg PUBLIC "-//W3C//DTD SVG 1.1//EN" "http://www.w3.org/Graphics/SVG/1.1/DTD/svg11.dtd">
<!-- Creator: CorelDRAW 2021 (64-Bit) -->
<svg xmlns="http://www.w3.org/2000/svg" xml:space="preserve" width="92.8054mm" height="22.9863mm" version="1.1" style="shape-rendering:geometricPrecision; text-rendering:geometricPrecision; image-rendering:optimizeQuality; fill-rule:evenodd; clip-rule:evenodd"
viewBox="0 0 8548.34 2117.28"
 xmlns:xlink="http://www.w3.org/1999/xlink"
 xmlns:xodm="http://www.corel.com/coreldraw/odm/2003">
 <defs>
  <style type="text/css">
   <![CDATA[
    .fil0 {fill:#FEFEFE;fill-rule:nonzero}
    .fil1 {fill:url(#id0)}
    .fil3 {fill:url(#id1)}
    .fil2 {fill:url(#id2)}
   ]]>
  </style>
  <linearGradient id="id0" gradientUnits="userSpaceOnUse" x1="12.47" y1="-11.74" x2="2032.63" y2="2129">
   <stop offset="0" style="stop-opacity:1; stop-color:#91D8F7"/>
   <stop offset="0.470588" style="stop-opacity:1; stop-color:#00AFEF"/>
   <stop offset="1" style="stop-opacity:1; stop-color:#0083B1"/>
  </linearGradient>
  <linearGradient id="id1" gradientUnits="userSpaceOnUse" x1="1283.01" y1="1997.75" x2="1283.01" y2="2.29">
   <stop offset="0" style="stop-opacity:1; stop-color:#97CA4B"/>
   <stop offset="1" style="stop-opacity:1; stop-color:#00A859"/>
  </linearGradient>
  <linearGradient id="id2" gradientUnits="userSpaceOnUse" x1="1463.88" y1="2301.05" x2="917.81" y2="1016">
   <stop offset="0" style="stop-opacity:1; stop-color:#EE4038"/>
   <stop offset="1" style="stop-opacity:1; stop-color:#FAAA31"/>
  </linearGradient>
 </defs>
 <g id="Camada_x0020_1">
  <metadata id="CorelCorpID_0Corel-Layer"/>
  <path class="fil0" d="M2829.23 1745.84c5.5,-0.77 11.29,-1.11 17.76,-1.11 6.09,0 11.78,0.34 16.94,1.11l0 138.54c0,14.05 0.83,26.02 2.82,35.95 1.75,10.03 4.67,18.26 8.76,24.37 3.98,6.14 9.49,10.7 16.05,13.69 6.77,2.97 15.03,4.47 24.71,4.47 9.7,0 17.86,-1.5 24.43,-4.47 6.68,-2.98 11.87,-7.54 15.97,-13.69 4.08,-6.12 6.95,-14.34 8.85,-24.37 1.8,-9.93 2.82,-21.9 2.82,-35.95l0 -138.54c5.64,-0.77 11.34,-1.11 17.22,-1.11 6.37,0 12.17,0.34 17.67,1.11l0 144.66c0,16.27 -1.51,30.86 -4.58,43.95 -3.02,12.75 -8.08,23.6 -14.88,32.46 -7.06,8.81 -15.98,15.61 -27.11,20.25 -11.01,4.62 -24.63,7.01 -40.4,7.01 -15.86,0 -29.28,-2.39 -40.38,-7.01 -11.19,-4.63 -20.14,-11.43 -27.11,-20.25 -6.9,-8.86 -11.86,-19.71 -14.89,-32.46 -3.06,-13.09 -4.67,-27.68 -4.67,-43.95l0 -144.66z"/>
  <path class="fil0" d="M3057.99 1815.65c2.48,-0.29 4.96,-0.68 7.3,-0.97 2.39,-0.15 4.77,-0.25 7.26,-0.25 2.56,0 4.91,0.1 7,0.25 2.08,0.29 4.47,0.67 6.95,0.97 0.67,3.5 1.31,8.02 2.1,13.82 0.67,5.74 1.01,10.57 1.01,14.55 2.2,-3.99 5.16,-7.83 8.67,-11.62 3.41,-3.85 7.39,-7.3 11.97,-10.28 4.47,-3.06 9.77,-5.58 15.61,-7.58 5.99,-1.9 12.41,-2.82 19.36,-2.82 19.94,0 34.69,5.64 44.18,17.02 9.45,11.49 14.36,28.42 14.36,50.75l0 110.5c-2.58,0.43 -5.41,0.82 -8.57,1.01 -3.11,0.25 -5.99,0.35 -8.46,0.35 -2.43,0 -5.2,-0.1 -8.32,-0.35 -3.06,-0.19 -5.89,-0.58 -8.37,-1.01l0 -101.2c0,-16.07 -2.49,-27.94 -7.35,-35.54 -5.01,-7.54 -12.98,-11.43 -23.93,-11.43 -6.37,0 -12.36,1.22 -17.96,3.41 -5.69,2.33 -10.66,5.89 -15.03,10.57 -4.18,4.75 -7.68,10.99 -10.32,18.63 -2.58,7.45 -3.85,16.73 -3.85,27.34l0 88.22c-2.43,0.43 -5.3,0.82 -8.32,1.01 -3.06,0.25 -5.83,0.35 -8.37,0.35 -2.48,0 -5.25,-0.1 -8.35,-0.35 -3.37,-0.19 -6.09,-0.58 -8.57,-1.01l0 -174.35z"/>
  <path class="fil0" d="M3264.59 1842.22l-22.24 0c-0.39,-1.8 -0.78,-3.85 -0.98,-6.22 -0.14,-2.39 -0.33,-4.87 -0.33,-6.97 0,-2.28 0.19,-4.58 0.33,-6.91 0.19,-2.39 0.59,-4.57 0.98,-6.47l55.04 0 0 174.35c-2.49,0.43 -5.26,0.82 -8.18,1.01 -3.06,0.25 -5.89,0.35 -8.37,0.35 -2.18,0 -4.96,-0.1 -7.98,-0.35 -3.17,-0.19 -5.78,-0.58 -8.27,-1.01l0 -147.78zm-7.49 -64.82c-0.5,-2.77 -0.78,-5.64 -0.98,-8.89 -0.1,-3.08 -0.1,-6.04 -0.1,-8.37 0,-2.63 0,-5.51 0.1,-8.53 0.19,-3.2 0.48,-6.02 0.98,-8.51 2.81,-0.48 6.08,-0.83 9.49,-1.02 3.32,-0.25 6.27,-0.34 8.85,-0.34 2.34,0 5.4,0.09 8.7,0.34 3.56,0.19 6.57,0.54 9.25,1.02 0.5,2.49 0.73,5.31 0.83,8.51 0.2,3.02 0.2,5.9 0.2,8.53 0,2.33 0,5.3 -0.2,8.37 -0.1,3.25 -0.33,6.12 -0.83,8.89 -2.68,0.49 -5.68,0.68 -9.15,0.99 -3.12,0.23 -5.99,0.23 -8.51,0.23 -2.77,0 -5.83,0 -9.15,-0.23 -3.41,-0.3 -6.68,-0.5 -9.49,-0.99z"/>
  <path class="fil0" d="M3330.84 1815.65c3.12,-0.29 6.48,-0.68 9.78,-0.97 3.41,-0.15 6.47,-0.25 9.15,-0.25 3.02,0 6.27,0.1 9.77,0.25 3.41,0.29 6.48,0.67 8.92,0.97l47.53 143.79 47.99 -143.79c2.48,-0.29 5.35,-0.68 8.46,-0.97 3.25,-0.15 6.18,-0.25 9.24,-0.25 2.43,0 5.2,0.1 8.51,0.25 3.07,0.29 6.28,0.67 9.54,0.97l-68.17 174.35c-2.82,0.43 -5.79,0.82 -8.7,1.01 -2.97,0.25 -5.76,0.35 -8.18,0.35 -2.39,0 -5.16,-0.1 -7.98,-0.35 -2.88,-0.19 -5.55,-0.58 -8.27,-1.01l-67.59 -174.35z"/>
  <path class="fil0" d="M3557.78 1911.26c0.4,19.02 5.31,32.88 14.74,41.64 9.4,8.91 23.37,13.48 41.72,13.48 15.95,0 31.37,-2.98 45.83,-8.62 1.79,3.37 3.21,7.65 4.33,12.46 1.25,4.83 1.85,9.63 2.08,14.36 -7.4,3.11 -15.67,5.5 -24.66,7.16 -8.95,1.54 -18.83,2.37 -29.69,2.37 -15.76,0 -29.54,-2.28 -40.88,-6.6 -11.28,-4.43 -20.58,-10.76 -27.92,-18.69 -7.41,-8.03 -12.86,-17.61 -16.17,-28.51 -3.41,-11.01 -5.01,-22.97 -5.01,-36.21 0,-12.84 1.6,-24.96 4.82,-36.21 3.36,-11.24 8.37,-20.96 15.13,-29.18 6.81,-8.34 15.28,-14.85 25.63,-19.66 10.28,-4.93 22.45,-7.35 36.5,-7.35 12.07,0 22.63,1.98 31.62,6.12 9.16,4.01 16.75,9.64 22.82,16.85 5.99,7.05 10.66,15.57 13.77,25.49 3.27,9.74 4.87,20.49 4.87,32.03 0,3.12 -0.1,6.51 -0.29,10.01 -0.19,3.51 -0.48,6.53 -0.73,9.06l-118.54 0zm86.27 -25.21c0,-6.42 -0.83,-12.36 -2.52,-18.15 -1.71,-5.83 -4.19,-10.84 -7.54,-15.08 -3.31,-4.38 -7.4,-7.74 -12.51,-10.32 -5.16,-2.67 -11.15,-3.89 -18.25,-3.89 -13.83,0 -24.34,4.08 -31.77,12.5 -7.3,8.33 -11.87,20 -13.39,34.94l85.98 0z"/>
  <path class="fil0" d="M3721.52 1815.65c2.58,-0.29 4.87,-0.68 7.11,-0.97 2.28,-0.15 4.67,-0.25 7.16,-0.25 2.58,0 5,0.1 7.49,0.25 2.48,0.29 4.77,0.67 6.77,0.97 0.67,3.5 1.31,7.93 2.08,13.43 0.69,5.6 0.93,10.26 0.93,14.17 4.77,-7.64 11.14,-14.36 18.94,-20.05 7.88,-5.65 17.75,-8.51 30.01,-8.51 1.81,0 3.69,0 5.64,0.19 2.06,0.09 3.62,0.39 4.93,0.58 0.39,2 0.77,4.08 1.06,6.37 0.25,2.34 0.25,4.72 0.25,7.16 0,2.72 -0.15,5.6 -0.53,8.51 -0.29,2.92 -0.68,5.75 -1.16,8.52 -1.71,-0.5 -3.6,-0.78 -5.5,-0.78l-4.68 0c-5.99,0 -11.97,0.92 -17.46,2.63 -5.5,1.6 -10.46,4.75 -15.03,8.99 -4.38,4.38 -7.89,10.22 -10.47,17.67 -2.52,7.45 -3.89,17.04 -3.89,28.8l0 86.67c-2.42,0.43 -5.31,0.82 -8.32,1.01 -3.17,0.25 -5.75,0.35 -8.27,0.35 -2.49,0 -5.35,-0.1 -8.37,-0.35 -3.16,-0.19 -5.9,-0.58 -8.67,-1.01l0 -174.35z"/>
  <path class="fil0" d="M3844.89 1958.39c6.09,2.58 12.75,4.49 20.24,5.99 7.3,1.42 14.65,2.28 21.85,2.28 5.26,0 10.17,-0.58 15.03,-1.69 4.73,-1.27 8.81,-2.88 12.36,-5.16 3.41,-2.25 6.27,-5.06 8.47,-8.43 2.14,-3.25 3.21,-6.85 3.21,-10.9 0,-4.56 -0.88,-8.32 -2.48,-11.28 -1.81,-2.98 -3.99,-5.44 -6.82,-7.44 -2.86,-2.1 -6.08,-3.76 -9.93,-5.26 -3.69,-1.46 -7.68,-2.86 -12.06,-4.29l-11.87 -4.31c-14.45,-5.37 -25.06,-11.64 -31.53,-18.46 -6.57,-6.8 -9.87,-15.86 -9.87,-27.43 0,-15.47 5.49,-27.74 16.44,-36.79 10.99,-9.1 27.15,-13.53 48.47,-13.53 8.8,0 17.45,0.88 25.93,2.43 8.57,1.81 15.95,3.8 22.33,6.08 -0.48,4.43 -1.31,9.1 -2.58,13.48 -1.22,4.67 -2.81,8.81 -4.57,12.66 -5.02,-1.76 -11,-3.56 -17.86,-5.26 -6.81,-1.71 -14.36,-2.48 -22.24,-2.48 -8.46,0 -15.76,1.4 -22.33,4.27 -6.38,3.02 -9.59,8.23 -9.59,15.67 0,3.75 0.68,7.1 2.38,9.84 1.52,2.73 3.71,5 6.38,7 2.72,1.91 5.88,3.55 9.28,4.91 3.6,1.43 7.41,2.74 11.39,4.1l15.03 5.05c5.3,1.81 10.56,4.1 15.38,6.52 4.96,2.49 9.05,5.51 12.55,9.25 3.6,3.8 6.48,8.33 8.57,13.62 2.19,5.41 3.21,11.84 3.21,19.18 0,8.43 -1.7,15.95 -5.02,22.96 -3.5,6.96 -8.26,12.95 -14.44,17.77 -6.28,4.81 -13.78,8.51 -22.63,11.24 -8.85,2.72 -18.63,4.14 -29.25,4.14 -10.85,0 -20.44,-0.64 -28.41,-2.28 -8.18,-1.41 -15.82,-3.46 -22.93,-5.93 0.48,-4.49 1.41,-9.16 2.92,-13.69 1.57,-4.66 3.07,-9.24 4.96,-13.82z"/>
  <path class="fil0" d="M4012.72 1842.22l-22.14 0c-0.49,-1.8 -0.88,-3.85 -1.07,-6.22 -0.15,-2.39 -0.25,-4.87 -0.25,-6.97 0,-2.28 0.1,-4.58 0.25,-6.91 0.19,-2.39 0.58,-4.57 1.07,-6.47l55.03 0 0 174.35c-2.37,0.43 -5.25,0.82 -8.26,1.01 -3.08,0.25 -5.79,0.35 -8.27,0.35 -2.39,0 -5.07,-0.1 -7.99,-0.35 -3.16,-0.19 -5.88,-0.58 -8.36,-1.01l0 -147.78zm-7.5 -64.82c-0.39,-2.77 -0.68,-5.64 -0.77,-8.89 -0.19,-3.08 -0.29,-6.04 -0.29,-8.37 0,-2.63 0.1,-5.51 0.29,-8.53 0.09,-3.2 0.39,-6.02 0.77,-8.51 2.92,-0.48 6.18,-0.83 9.49,-1.02 3.41,-0.25 6.47,-0.34 8.85,-0.34 2.54,0 5.51,0.09 8.81,0.34 3.35,0.19 6.48,0.54 9.15,1.02 0.48,2.49 0.83,5.31 0.92,8.51 0,3.02 0.1,5.9 0.1,8.53 0,2.33 -0.1,5.3 -0.1,8.37 -0.09,3.25 -0.44,6.12 -0.92,8.89 -2.67,0.49 -5.69,0.68 -8.95,0.99 -3.31,0.23 -6.27,0.23 -8.71,0.23 -2.58,0 -5.74,0 -9.15,-0.23 -3.31,-0.3 -6.57,-0.5 -9.49,-0.99z"/>
  <path class="fil0" d="M4212.2 1741.04c2.39,-0.58 5.21,-0.87 8.57,-0.97 2.93,-0.25 5.79,-0.34 7.99,-0.34 2.57,0 5.2,0.09 8.36,0.34 3.02,0.1 5.89,0.39 8.37,0.97l0 244.22c-8.67,2.44 -18.25,4.63 -28.9,6.18 -10.67,1.84 -22.54,2.67 -35.67,2.67 -12.26,0 -23.94,-1.59 -34.84,-4.61 -10.95,-3.01 -20.63,-8.12 -28.72,-15.13 -8.16,-7.01 -14.64,-16.05 -19.41,-27.2 -4.72,-11.05 -7.1,-24.71 -7.1,-41.06 0,-14.01 2.08,-26.77 6.27,-38.3 4.18,-11.63 10.26,-21.54 17.86,-29.83 7.69,-8.22 16.93,-14.7 27.73,-19.17 10.67,-4.49 22.73,-6.72 35.87,-6.72 5.79,0 11.87,0.49 17.76,1.22 5.99,1.02 11.28,2.14 15.86,3.51l0 -75.77zm0 104.23c-4.58,-1.75 -9.39,-3.16 -14.65,-3.98 -5.2,-0.99 -10.9,-1.46 -16.98,-1.46 -9.24,0 -17.33,1.79 -24.09,5.16 -6.91,3.35 -12.41,8.12 -16.88,13.95 -4.38,5.85 -7.69,12.86 -9.88,20.88 -2.08,7.93 -3.26,16.79 -3.26,26.28 0.19,21.51 5.35,36.98 15.33,46.17 9.98,9.25 23.65,14.11 40.79,14.11 5.99,0 11.38,-0.4 16.25,-0.98 5.01,-0.44 9.49,-1.41 13.37,-2.52l0 -117.62z"/>
  <path class="fil0" d="M4391.54 1908.18c-3.31,-0.39 -7.68,-0.88 -12.93,-1.41 -5.12,-0.4 -9.59,-0.69 -13.19,-0.69 -14.17,0 -24.71,2.68 -32.12,7.84 -7.44,5.31 -11.05,13.14 -11.05,23.69 0,6.91 1.17,12.22 3.71,16.11 2.58,3.9 5.64,6.76 9.43,8.86 3.69,2 7.78,3.25 12.36,3.79 4.52,0.29 8.81,0.54 12.79,0.54 5.35,0 10.75,-0.25 16.25,-0.83 5.55,-0.64 10.38,-1.41 14.75,-2.43l0 -55.47zm0 -32.99c0,-13.28 -3.31,-22.59 -10.16,-27.78 -6.87,-5.26 -16.75,-7.93 -29.64,-7.93 -7.98,0 -15.24,0.77 -22.14,1.89 -6.95,1.33 -13.72,2.98 -20.24,4.96 -4.19,-7.44 -6.48,-16.34 -6.48,-26.85 7.69,-2.49 16.17,-4.39 25.55,-5.74 9.25,-1.37 18.04,-2 26.8,-2 22.73,0 39.81,5.16 51.58,15.37 11.83,10.32 17.71,26.76 17.71,49.44l0 109.09c-7.99,1.71 -17.61,3.7 -28.91,5.65 -11.27,1.9 -22.91,2.88 -34.69,2.88 -11.09,0 -21.06,-1.08 -30.03,-3.18 -8.94,-1.94 -16.53,-5.16 -22.81,-9.77 -6.28,-4.57 -11,-10.32 -14.36,-17.37 -3.41,-7 -5.1,-15.43 -5.1,-25.44 0,-9.75 1.89,-18.35 5.89,-25.61 3.99,-7.49 9.4,-13.53 16.16,-18.44 6.85,-4.81 14.74,-8.37 23.44,-10.76 8.86,-2.58 18.15,-3.69 27.8,-3.69 7.3,0 13.28,0.3 17.94,0.69 4.63,0.23 8.57,0.64 11.68,1.11l0 -6.52z"/>
  <path class="fil0" d="M4586.93 1741.04c2.49,-0.58 5.31,-0.87 8.46,-0.97 3.21,-0.25 5.99,-0.34 8.18,-0.34 2.49,0 5.3,0.09 8.36,0.34 2.92,0.1 5.69,0.39 8.18,0.97l0 244.22c-8.57,2.44 -18.15,4.63 -28.8,6.18 -10.66,1.84 -22.54,2.67 -35.67,2.67 -12.26,0 -23.85,-1.59 -34.85,-4.61 -10.95,-3.01 -20.53,-8.12 -28.7,-15.13 -8.08,-7.01 -14.55,-16.05 -19.42,-27.2 -4.62,-11.05 -7.01,-24.71 -7.01,-41.06 0,-14.01 2,-26.77 6.27,-38.3 4.18,-11.63 10.07,-21.54 17.68,-29.83 7.77,-8.22 17.11,-14.7 27.83,-19.17 10.75,-4.49 22.72,-6.72 35.87,-6.72 5.88,0 11.86,0.49 17.84,1.22 5.99,1.02 11.11,2.14 15.77,3.51l0 -75.77zm0 104.23c-4.66,-1.75 -9.4,-3.16 -14.65,-3.98 -5.2,-0.99 -10.8,-1.46 -16.99,-1.46 -9.24,0 -17.32,1.79 -24.13,5.16 -6.85,3.35 -12.36,8.12 -16.83,13.95 -4.29,5.85 -7.6,12.86 -9.78,20.88 -2.28,7.93 -3.27,16.79 -3.27,26.28 0.19,21.51 5.35,36.98 15.35,46.17 9.87,9.25 23.54,14.11 40.86,14.11 5.79,0 11.09,-0.4 16.16,-0.98 5.01,-0.44 9.4,-1.41 13.28,-2.52l0 -117.62z"/>
  <path class="fil0" d="M4699.36 1911.26c0.5,19.02 5.31,32.88 14.74,41.64 9.5,8.91 23.37,13.48 41.62,13.48 16.16,0 31.47,-2.98 46.03,-8.62 1.69,3.37 3.32,7.65 4.33,12.46 1.08,4.83 1.8,9.63 2.01,14.36 -7.51,3.11 -15.68,5.5 -24.58,7.16 -8.95,1.54 -18.83,2.37 -29.87,2.37 -15.77,0 -29.34,-2.28 -40.68,-6.6 -11.3,-4.43 -20.63,-10.76 -27.94,-18.69 -7.39,-8.03 -12.85,-17.61 -16.15,-28.51 -3.41,-11.01 -5.21,-22.97 -5.21,-36.21 0,-12.84 1.71,-24.96 5,-36.21 3.27,-11.24 8.37,-20.96 15.15,-29.18 6.7,-8.34 15.26,-14.85 25.63,-19.66 10.26,-4.93 22.43,-7.35 36.5,-7.35 12.05,0 22.52,1.98 31.62,6.12 9.05,4.01 16.64,9.64 22.72,16.85 6.17,7.05 10.76,15.57 13.96,25.49 3.07,9.74 4.76,20.49 4.76,32.03 0,3.12 -0.19,6.51 -0.39,10.01 -0.19,3.51 -0.48,6.53 -0.64,9.06l-118.63 0zm86.18 -25.21c0,-6.42 -0.74,-12.36 -2.43,-18.15 -1.7,-5.83 -4.19,-10.84 -7.54,-15.08 -3.21,-4.38 -7.3,-7.74 -12.51,-10.32 -5.07,-2.67 -11.15,-3.89 -18.15,-3.89 -13.81,0 -24.41,4.08 -31.76,12.5 -7.3,8.33 -11.88,20 -13.38,34.94l85.78 0z"/>
  <path class="fil0" d="M5055.47 1741.04c2.58,-0.58 5.3,-0.87 8.46,-0.97 3.21,-0.25 5.9,-0.34 8.17,-0.34 2.48,0 5.31,0.09 8.37,0.34 2.92,0.1 5.79,0.39 8.27,0.97l0 244.22c-8.66,2.44 -18.25,4.63 -28.91,6.18 -10.65,1.84 -22.42,2.67 -35.76,2.67 -12.17,0 -23.75,-1.59 -34.64,-4.61 -11.14,-3.01 -20.63,-8.12 -28.81,-15.13 -8.07,-7.01 -14.54,-16.05 -19.31,-27.2 -4.73,-11.05 -7.2,-24.71 -7.2,-41.06 0,-14.01 2.08,-26.77 6.37,-38.3 4.18,-11.63 10.07,-21.54 17.75,-29.83 7.79,-8.22 17.04,-14.7 27.64,-19.17 10.86,-4.49 22.82,-6.72 35.86,-6.72 5.99,0 11.97,0.49 17.96,1.22 5.99,1.02 11.19,2.14 15.77,3.51l0 -75.77zm0 104.23c-4.58,-1.75 -9.3,-3.16 -14.65,-3.98 -5.21,-0.99 -10.9,-1.46 -16.87,-1.46 -9.36,0 -17.43,1.79 -24.18,5.16 -6.82,3.35 -12.42,8.12 -16.9,13.95 -4.37,5.85 -7.58,12.86 -9.87,20.88 -2.08,7.93 -3.16,16.79 -3.16,26.28 0.29,21.51 5.26,36.98 15.33,46.17 9.87,9.25 23.55,14.11 40.77,14.11 5.99,0 11.3,-0.4 16.36,-0.98 4.82,-0.44 9.29,-1.41 13.19,-2.52l0 -117.62z"/>
  <path class="fil0" d="M5213.5 1994.13c-13.67,0 -25.54,-2.39 -35.7,-7.01 -10.17,-4.57 -18.74,-11.04 -25.61,-19.17 -6.7,-8.12 -11.67,-17.71 -15.07,-28.9 -3.27,-11.04 -4.87,-23.02 -4.87,-36.01 0,-12.94 1.6,-24.87 4.87,-35.96 3.4,-11.09 8.37,-20.73 15.07,-28.8 6.87,-8.23 15.44,-14.7 25.61,-19.52 10.16,-4.67 22.03,-7.05 35.7,-7.05 13.49,0 25.45,2.38 35.63,7.05 10.07,4.82 18.74,11.28 25.5,19.52 6.81,8.07 11.87,17.71 14.99,28.8 3.35,11.09 4.96,23.02 4.96,35.96 0,12.99 -1.61,24.96 -4.96,36.01 -3.11,11.19 -8.18,20.78 -14.99,28.9 -6.76,8.12 -15.43,14.6 -25.5,19.17 -10.18,4.62 -22.13,7.01 -35.63,7.01zm0 -26.95c15.58,0 27.2,-5.65 34.62,-16.85 7.39,-11.38 11.08,-27.14 11.08,-47.29 0,-20.1 -3.69,-35.87 -11.08,-47.05 -7.41,-11.11 -19.04,-16.94 -34.62,-16.94 -15.67,0 -27.19,5.83 -34.5,16.94 -7.3,11.18 -11.09,26.95 -11.09,47.05 0,20.14 3.79,35.91 11.09,47.29 7.3,11.2 18.83,16.85 34.5,16.85z"/>
  <path class="fil0" d="M5422.11 1745.47c3.31,-0.49 7.41,-0.99 12.07,-1.42 4.58,-0.49 9.49,-0.88 14.55,-1.26 5.1,-0.29 10.26,-0.5 15.28,-0.69 5.26,-0.29 9.98,-0.38 14.84,-0.38 12.36,0 24.23,1.17 35.46,3.75 11.2,2.48 21.07,6.71 29.55,12.9 8.57,6.13 15.17,14.25 20.24,24.12 5.02,10.22 7.5,22.87 7.5,38.01 0,15.76 -2.73,29 -8.08,39.65 -5.2,10.51 -12.27,18.98 -20.87,25.26 -8.85,6.32 -18.74,10.74 -29.87,13.37 -11.11,2.68 -22.45,3.95 -33.92,3.95 -4.38,0 -8.18,-0.06 -11.49,-0.16 -3.25,-0.06 -6.85,-0.34 -10.65,-0.83l0 88.22c-5.51,0.73 -11.25,1.02 -17.33,1.02 -2.73,0 -5.6,0 -8.62,-0.1 -3.06,-0.09 -5.99,-0.48 -8.66,-0.92l0 -244.51zm34.61 125.92c3.6,0.58 6.85,0.83 9.48,1.02 2.78,0.29 6.67,0.39 11.97,0.39 6.97,0 13.97,-0.64 20.84,-2.14 6.96,-1.42 12.95,-4.19 18.53,-8.08 5.41,-3.74 9.87,-9.11 13.09,-15.77 3.27,-6.62 4.96,-15.38 4.96,-25.93 0,-9.29 -1.4,-17.04 -4.37,-23.46 -2.74,-6.42 -6.68,-11.44 -11.59,-15.33 -5.16,-3.83 -11.05,-6.62 -18.05,-8.07 -7.06,-1.71 -14.65,-2.39 -22.72,-2.39 -8.37,0 -15.76,0.39 -22.13,0.97l0 98.78z"/>
  <path class="fil0" d="M5610.86 1741.04c2.58,-0.58 5.41,-0.87 8.46,-0.97 3.02,-0.25 5.79,-0.34 8.37,-0.34 2.43,0 5.1,0.09 8.28,0.34 3,0.1 5.78,0.39 8.32,0.97l0 196.4c0,6.23 0.58,11.38 1.65,14.84 1.22,3.7 2.63,6.51 4.62,8.32 1.89,1.99 4.18,3.21 6.76,3.79 2.58,0.68 5.41,0.93 8.27,0.93 2.19,0 4.49,-0.19 7.05,-0.35 2.63,-0.29 4.84,-0.67 6.72,-1.16 1.9,8.03 3.08,16.64 3.08,25.88 -3.27,1.12 -7.17,1.75 -11.64,2.15 -4.62,0.39 -8.7,0.58 -12.59,0.58 -6.59,0 -12.66,-0.77 -18.35,-2.42 -5.69,-1.62 -10.67,-4.1 -14.94,-7.75 -4.28,-3.69 -7.69,-8.52 -10.27,-14.7 -2.49,-6.02 -3.79,-13.57 -3.79,-22.77l0 -203.74z"/>
  <path class="fil0" d="M5804.92 1908.18c-3.31,-0.39 -7.59,-0.88 -12.84,-1.41 -5.21,-0.4 -9.68,-0.69 -13.28,-0.69 -13.97,0 -24.62,2.68 -32.13,7.84 -7.24,5.31 -11.03,13.14 -11.03,23.69 0,6.91 1.26,12.22 3.79,16.11 2.49,3.9 5.64,6.76 9.24,8.86 3.79,2 7.99,3.25 12.55,3.79 4.43,0.29 8.71,0.54 12.9,0.54 5.16,0 10.45,-0.25 16.05,-0.83 5.65,-0.64 10.47,-1.41 14.75,-2.43l0 -55.47zm0 -32.99c0,-13.28 -3.31,-22.59 -10.17,-27.78 -6.77,-5.26 -16.55,-7.93 -29.54,-7.93 -7.93,0 -15.33,0.77 -22.14,1.89 -7.05,1.33 -13.72,2.98 -20.33,4.96 -4.29,-7.44 -6.48,-16.34 -6.48,-26.85 7.7,-2.49 16.27,-4.39 25.56,-5.74 9.24,-1.37 18.24,-2 26.8,-2 22.63,0 39.8,5.16 51.58,15.37 11.82,10.32 17.8,26.76 17.8,49.44l0 109.09c-7.88,1.71 -17.7,3.7 -29.01,5.65 -11.18,1.9 -22.82,2.88 -34.59,2.88 -11.09,0 -21.17,-1.08 -30.13,-3.18 -8.85,-1.94 -16.44,-5.16 -22.71,-9.77 -6.18,-4.57 -11,-10.32 -14.45,-17.37 -3.32,-7 -5.01,-15.43 -5.01,-25.44 0,-9.75 1.89,-18.35 5.89,-25.61 3.99,-7.49 9.3,-13.53 16.16,-18.44 6.76,-4.81 14.55,-8.37 23.35,-10.76 8.85,-2.58 18.15,-3.69 28.03,-3.69 7.16,0 13.04,0.3 17.8,0.69 4.63,0.23 8.57,0.64 11.59,1.11l0 -6.52z"/>
  <path class="fil0" d="M5888.55 1815.65c2.48,-0.29 5.06,-0.68 7.4,-0.97 2.28,-0.15 4.86,-0.25 7.35,-0.25 2.39,0 4.61,0.1 6.81,0.25 2.2,0.29 4.49,0.67 6.97,0.97 0.67,3.5 1.4,8.02 1.98,13.82 0.79,5.74 1.02,10.57 1.02,14.55 2.39,-3.99 5.26,-7.83 8.76,-11.62 3.5,-3.85 7.51,-7.3 12.07,-10.28 4.49,-3.06 9.68,-5.58 15.67,-7.58 5.84,-1.9 12.17,-2.82 19.43,-2.82 19.85,0 34.59,5.64 44.08,17.02 9.49,11.49 14.24,28.42 14.24,50.75l0 110.5c-2.47,0.43 -5.3,0.82 -8.46,1.01 -3.11,0.25 -5.98,0.35 -8.56,0.35 -2.54,0 -5.31,-0.1 -8.32,-0.35 -3.08,-0.19 -5.76,-0.58 -8.28,-1.01l0 -101.2c0,-16.07 -2.48,-27.94 -7.54,-35.54 -4.91,-7.54 -12.9,-11.43 -23.76,-11.43 -6.36,0 -12.35,1.22 -18.04,3.41 -5.6,2.33 -10.67,5.89 -14.94,10.57 -4.29,4.75 -7.7,10.99 -10.37,18.63 -2.52,7.45 -3.89,16.73 -3.89,27.34l0 88.22c-2.43,0.43 -5.31,0.82 -8.32,1.01 -2.97,0.25 -5.85,0.35 -8.28,0.35 -2.48,0 -5.35,-0.1 -8.57,-0.35 -3.06,-0.19 -5.99,-0.58 -8.46,-1.01l0 -174.35z"/>
  <path class="fil0" d="M6176.98 1908.18c-3.31,-0.39 -7.69,-0.88 -12.84,-1.41 -5.21,-0.4 -9.69,-0.69 -13.29,-0.69 -14.16,0 -24.72,2.68 -32.11,7.84 -7.35,5.31 -11.05,13.14 -11.05,23.69 0,6.91 1.27,12.22 3.7,16.11 2.58,3.9 5.75,6.76 9.35,8.86 3.79,2 7.88,3.25 12.55,3.79 4.33,0.29 8.7,0.54 12.7,0.54 5.35,0 10.65,-0.25 16.15,-0.83 5.65,-0.64 10.56,-1.41 14.84,-2.43l0 -55.47zm0 -32.99c0,-13.28 -3.31,-22.59 -10.07,-27.78 -6.86,-5.26 -16.75,-7.93 -29.64,-7.93 -7.93,0 -15.32,0.77 -22.24,1.89 -6.85,1.33 -13.62,2.98 -20.25,4.96 -4.37,-7.44 -6.47,-16.34 -6.47,-26.85 7.69,-2.49 16.26,-4.39 25.45,-5.74 9.35,-1.37 18.25,-2 26.91,-2 22.53,0 39.81,5.16 51.59,15.37 11.72,10.32 17.61,26.76 17.61,49.44l0 109.09c-7.89,1.71 -17.52,3.7 -28.81,5.65 -11.38,1.9 -22.82,2.88 -34.69,2.88 -11,0 -21.02,-1.08 -30.03,-3.18 -8.95,-1.94 -16.44,-5.16 -22.72,-9.77 -6.27,-4.57 -11.1,-10.32 -14.54,-17.37 -3.32,-7 -5.01,-15.43 -5.01,-25.44 0,-9.75 1.99,-18.35 5.99,-25.61 3.89,-7.49 9.28,-13.53 16.05,-18.44 6.91,-4.81 14.65,-8.37 23.45,-10.76 8.85,-2.58 18.05,-3.69 27.87,-3.69 7.21,0 13.29,0.3 17.86,0.69 4.58,0.23 8.57,0.64 11.68,1.11l0 -6.52z"/>
  <path class="fil0" d="M6259.96 1741.04c2.48,-0.58 5.21,-0.87 8.27,-0.97 3.11,-0.25 5.79,-0.34 8.28,-0.34 2.56,0 5.3,0.09 8.45,0.34 3.02,0.1 5.79,0.39 8.37,0.97l0 196.4c0,6.23 0.35,11.38 1.62,14.84 1.11,3.7 2.62,6.51 4.52,8.32 1.94,1.99 4.27,3.21 6.85,3.79 2.68,0.68 5.31,0.93 8.27,0.93 2.09,0 4.38,-0.19 6.95,-0.35 2.74,-0.29 4.93,-0.67 6.62,-1.16 2.1,8.03 3.06,16.64 3.06,25.88 -3.06,1.12 -6.95,1.75 -11.47,2.15 -4.59,0.39 -8.76,0.58 -12.55,0.58 -6.68,0 -12.67,-0.77 -18.44,-2.42 -5.6,-1.62 -10.57,-4.1 -15.05,-7.75 -4.18,-3.69 -7.59,-8.52 -9.98,-14.7 -2.48,-6.02 -3.79,-13.57 -3.79,-22.77l0 -203.74z"/>
  <path class="fil0" d="M6368.4 1842.6l-26.53 0 -1.5 -4.73 58.54 -65.24 2.67 0 0 43.01 44.19 0c0.92,3.9 1.31,8.23 1.31,13 0,2.44 0,4.87 -0.29,7.26 -0.18,2.19 -0.53,4.42 -1.01,6.71l-44.19 0 0 79.45c0,9.64 0.43,17.19 1.12,22.77 0.87,5.7 2.39,10.13 4.17,13.14 1.91,3.02 4.59,5.01 7.79,6.13 3.26,1.08 7.44,1.52 12.36,1.52 3.89,0 7.49,-0.19 11.05,-0.83 3.3,-0.58 6.31,-1.17 8.99,-1.9 1.61,4.48 2.58,9.14 2.97,13.87 0.4,4.72 0.53,9.05 0.53,12.69 -4.61,0.98 -9.39,1.95 -14.3,2.39 -4.96,0.59 -10.26,0.88 -16.01,0.88 -16.35,0 -29.05,-3.95 -38.2,-11.78 -9.19,-8.03 -13.66,-21.12 -13.66,-39.51l0 -98.83z"/>
  <path class="fil0" d="M6554.18 1994.13c-13.57,0 -25.54,-2.39 -35.71,-7.01 -10.18,-4.57 -18.73,-11.04 -25.4,-19.17 -6.82,-8.12 -11.86,-17.71 -15.27,-28.9 -3.27,-11.04 -4.77,-23.02 -4.77,-36.01 0,-12.94 1.5,-24.87 4.77,-35.96 3.41,-11.09 8.46,-20.73 15.27,-28.8 6.68,-8.23 15.23,-14.7 25.4,-19.52 10.17,-4.67 22.14,-7.05 35.71,-7.05 13.58,0 25.45,2.38 35.63,7.05 10.26,4.82 18.63,11.28 25.49,19.52 6.82,8.07 11.88,17.71 15.09,28.8 3.35,11.09 4.97,23.02 4.97,35.96 0,12.99 -1.62,24.96 -4.97,36.01 -3.21,11.19 -8.27,20.78 -15.09,28.9 -6.85,8.12 -15.23,14.6 -25.49,19.17 -10.18,4.62 -22.05,7.01 -35.63,7.01zm0 -26.95c15.58,0 27.2,-5.65 34.69,-16.85 7.41,-11.38 11.2,-27.14 11.2,-47.29 0,-20.1 -3.79,-35.87 -11.2,-47.05 -7.49,-11.11 -19.11,-16.94 -34.69,-16.94 -15.76,0 -27.1,5.83 -34.5,16.94 -7.3,11.18 -11.09,26.95 -11.09,47.05 0,20.14 3.79,35.91 11.09,47.29 7.4,11.2 18.74,16.85 34.5,16.85z"/>
  <path class="fil0" d="M6918.85 1954.37c4.85,9.72 8.07,19.21 9.39,28.16 -9.39,4.14 -19.17,7.2 -29.25,8.86 -9.87,1.81 -20.72,2.73 -32.3,2.73 -17.61,0 -33.47,-2.83 -47.73,-8.57 -14.16,-5.79 -25.94,-14.17 -35.81,-24.96 -9.68,-10.65 -17.22,-23.7 -22.35,-39.21 -5.2,-15.38 -7.77,-32.8 -7.77,-51.92 0,-19.52 2.58,-37.18 7.77,-52.75 5.12,-15.86 12.67,-29.28 22.35,-40.34 9.87,-11.15 21.66,-19.71 35.71,-25.79 14.07,-5.99 29.78,-8.85 47.16,-8.85 12.93,0 23.93,0.88 33.38,2.63 9.28,1.79 17.56,4.08 24.76,6.47 -0.44,5.25 -1.41,10.02 -2.82,14.4 -1.46,4.43 -3.27,9.29 -5.35,14.17 -3.31,-1.11 -6.62,-2.1 -9.89,-3.02 -3.1,-0.98 -6.5,-1.71 -10.07,-2.33 -3.69,-0.78 -7.68,-1.23 -12.07,-1.61 -4.47,-0.29 -9.49,-0.39 -15.17,-0.39 -24.62,0 -43.85,8.32 -57.62,25.06 -13.68,16.69 -20.54,40.87 -20.54,72.35 0,15.96 2,30.02 5.79,41.8 3.79,11.82 9.25,21.5 16.25,29.24 7.06,7.65 15.52,13.48 25.41,17.27 9.77,3.75 20.92,5.85 33.12,5.85 9.53,0 18.2,-0.83 25.89,-2.44 7.59,-1.66 14.78,-3.79 21.76,-6.8z"/>
  <path class="fil0" d="M7062.15 1908.18c-3.5,-0.39 -7.68,-0.88 -12.94,-1.41 -5.21,-0.4 -9.58,-0.69 -13.37,-0.69 -13.88,0 -24.64,2.68 -32.03,7.84 -7.43,5.31 -10.94,13.14 -10.94,23.69 0,6.91 1.16,12.22 3.6,16.11 2.58,3.9 5.65,6.76 9.43,8.86 3.7,2 7.88,3.25 12.36,3.79 4.52,0.29 8.81,0.54 13,0.54 5.16,0 10.55,-0.25 16.05,-0.83 5.64,-0.64 10.57,-1.41 14.84,-2.43l0 -55.47zm0 -32.99c0,-13.28 -3.5,-22.59 -10.26,-27.78 -6.77,-5.26 -16.75,-7.93 -29.45,-7.93 -7.98,0 -15.42,0.77 -22.34,1.89 -6.85,1.33 -13.72,2.98 -20.23,4.96 -4.19,-7.44 -6.48,-16.34 -6.48,-26.85 7.79,-2.49 16.26,-4.39 25.54,-5.74 9.26,-1.37 18.25,-2 26.81,-2 22.73,0 39.9,5.16 51.68,15.37 11.82,10.32 17.71,26.76 17.71,49.44l0 109.09c-7.99,1.71 -17.61,3.7 -28.91,5.65 -11.38,1.9 -23,2.88 -34.69,2.88 -11.18,0 -21.16,-1.08 -30.03,-3.18 -9.05,-1.94 -16.53,-5.16 -22.82,-9.77 -6.36,-4.57 -10.99,-10.32 -14.45,-17.37 -3.31,-7 -5.1,-15.43 -5.1,-25.44 0,-9.75 1.99,-18.35 6.08,-25.61 3.9,-7.49 9.09,-13.53 16.05,-18.44 6.76,-4.81 14.65,-8.37 23.36,-10.76 8.94,-2.58 18.15,-3.69 27.98,-3.69 7.2,0 13.09,0.3 17.75,0.69 4.68,0.23 8.47,0.64 11.78,1.11l0 -6.52z"/>
  <path class="fil0" d="M7152.16 1842.6l-26.51 0 -1.42 -4.73 58.54 -65.24 2.77 0 0 43.01 43.99 0c0.93,3.9 1.51,8.23 1.51,13 0,2.44 -0.19,4.87 -0.39,7.26 -0.29,2.19 -0.54,4.42 -1.12,6.71l-43.99 0 0 79.45c0,9.64 0.34,17.19 1.12,22.77 0.77,5.7 2.18,10.13 3.99,13.14 2,3.02 4.68,5.01 7.88,6.13 3.32,1.08 7.41,1.52 12.36,1.52 3.91,0 7.51,-0.19 10.95,-0.83 3.41,-0.58 6.43,-1.17 9.2,-1.9 1.59,4.48 2.48,9.14 2.86,13.87 0.29,4.72 0.54,9.05 0.54,12.69 -4.62,0.98 -9.4,1.95 -14.36,2.39 -4.91,0.59 -10.22,0.88 -16.05,0.88 -16.16,0 -28.86,-3.95 -38.1,-11.78 -9.2,-8.03 -13.78,-21.12 -13.78,-39.51l0 -98.83z"/>
  <path class="fil0" d="M7359.53 1908.18c-3.5,-0.39 -7.79,-0.88 -13.05,-1.41 -5.2,-0.4 -9.58,-0.69 -13.18,-0.69 -14.06,0 -24.81,2.68 -32.21,7.84 -7.25,5.31 -10.85,13.14 -10.85,23.69 0,6.91 1.08,12.22 3.6,16.11 2.48,3.9 5.64,6.76 9.35,8.86 3.69,2 7.88,3.25 12.45,3.79 4.43,0.29 8.8,0.54 12.9,0.54 5.15,0 10.45,-0.25 16.05,-0.83 5.65,-0.64 10.45,-1.41 14.94,-2.43l0 -55.47zm0 -32.99c0,-13.28 -3.5,-22.59 -10.28,-27.78 -6.85,-5.26 -16.73,-7.93 -29.53,-7.93 -7.99,0 -15.42,0.77 -22.24,1.89 -6.96,1.33 -13.72,2.98 -20.34,4.96 -4.28,-7.44 -6.48,-16.34 -6.48,-26.85 7.68,-2.49 16.35,-4.39 25.55,-5.74 9.33,-1.37 18.25,-2 26.81,-2 22.61,0 39.8,5.16 51.66,15.37 11.84,10.32 17.72,26.76 17.72,49.44l0 109.09c-7.88,1.71 -17.62,3.7 -29.01,5.65 -11.28,1.9 -22.82,2.88 -34.59,2.88 -11.11,0 -21.18,-1.08 -30.13,-3.18 -8.85,-1.94 -16.44,-5.16 -22.71,-9.77 -6.18,-4.57 -11.11,-10.32 -14.45,-17.37 -3.32,-7 -5.03,-15.43 -5.03,-25.44 0,-9.75 1.91,-18.35 5.9,-25.61 4,-7.49 9.29,-13.53 16.17,-18.44 6.85,-4.81 14.54,-8.37 23.45,-10.76 8.85,-2.58 18.05,-3.69 27.96,-3.69 7.11,0 13.09,0.3 17.68,0.69 4.77,0.23 8.57,0.64 11.87,1.11l0 -6.52z"/>
  <path class="fil0" d="M7442.97 1815.65c2.48,-0.29 4.87,-0.68 7.1,-0.97 2.39,-0.15 4.68,-0.25 7.26,-0.25 2.39,0 4.86,0.1 7.39,0.25 2.58,0.29 4.78,0.67 6.76,0.97 0.69,3.5 1.42,7.93 2.1,13.43 0.69,5.6 1.02,10.26 1.02,14.17 4.86,-7.64 11.04,-14.36 18.83,-20.05 7.79,-5.65 17.95,-8.51 30.03,-8.51 1.9,0 3.69,0 5.69,0.19 1.94,0.09 3.44,0.39 4.96,0.58 0.39,2 0.67,4.08 0.87,6.37 0.25,2.34 0.35,4.72 0.35,7.16 0,2.72 -0.1,5.6 -0.44,8.51 -0.29,2.92 -0.77,5.75 -1.27,8.52 -1.8,-0.5 -3.6,-0.78 -5.49,-0.78l-4.67 0c-6.09,0 -11.88,0.92 -17.37,2.63 -5.6,1.6 -10.57,4.75 -15.03,8.99 -4.38,4.38 -7.88,10.22 -10.47,17.67 -2.62,7.45 -3.89,17.04 -3.89,28.8l0 86.67c-2.53,0.43 -5.31,0.82 -8.37,1.01 -3.02,0.25 -5.89,0.35 -8.32,0.35 -2.48,0 -5.25,-0.1 -8.37,-0.35 -2.97,-0.19 -5.89,-0.58 -8.66,-1.01l0 -174.35z"/>
  <path class="fil0" d="M7579.63 1842.22l-22.14 0c-0.48,-1.8 -0.87,-3.85 -0.97,-6.22 -0.25,-2.39 -0.34,-4.87 -0.34,-6.97 0,-2.28 0.09,-4.58 0.34,-6.91 0.1,-2.39 0.49,-4.57 0.97,-6.47l55.14 0 0 174.35c-2.58,0.43 -5.35,0.82 -8.37,1.01 -3.07,0.25 -5.9,0.35 -8.36,0.35 -2.28,0 -4.96,-0.1 -7.99,-0.35 -3.06,-0.19 -5.89,-0.58 -8.27,-1.01l0 -147.78zm-7.49 -64.82c-0.49,-2.77 -0.77,-5.64 -0.88,-8.89 -0.2,-3.08 -0.2,-6.04 -0.2,-8.37 0,-2.63 0,-5.51 0.2,-8.53 0.1,-3.2 0.39,-6.02 0.88,-8.51 2.92,-0.48 6.17,-0.83 9.49,-1.02 3.41,-0.25 6.27,-0.34 8.85,-0.34 2.43,0 5.41,0.09 8.7,0.34 3.46,0.19 6.58,0.54 9.26,1.02 0.48,2.49 0.73,5.31 0.92,8.51 0.1,3.02 0.1,5.9 0.1,8.53 0,2.33 0,5.3 -0.1,8.37 -0.19,3.25 -0.44,6.12 -0.92,8.89 -2.68,0.49 -5.7,0.68 -8.95,0.99 -3.31,0.23 -6.18,0.23 -8.66,0.23 -2.74,0 -5.79,0 -9.2,-0.23 -3.32,-0.3 -6.57,-0.5 -9.49,-0.99z"/>
  <path class="fil0" d="M7667.26 1815.65c2.48,-0.29 4.87,-0.68 7.3,-0.97 2.39,-0.15 4.87,-0.25 7.35,-0.25 2.49,0 4.82,0.1 6.91,0.25 2.1,0.29 4.48,0.67 6.95,0.97 0.78,3.5 1.42,8.02 2,13.82 0.68,5.74 1.02,10.57 1.02,14.55 2.29,-3.99 5.26,-7.83 8.66,-11.62 3.51,-3.85 7.59,-7.3 12.17,-10.28 4.38,-3.06 9.68,-5.58 15.58,-7.58 5.93,-1.9 12.26,-2.82 19.52,-2.82 19.85,0 34.59,5.64 43.98,17.02 9.49,11.49 14.34,28.42 14.34,50.75l0 110.5c-2.58,0.43 -5.3,0.82 -8.57,1.01 -3.09,0.25 -5.87,0.35 -8.45,0.35 -2.44,0 -5.31,-0.1 -8.34,-0.35 -3.06,-0.19 -5.89,-0.58 -8.35,-1.01l0 -101.2c0,-16.07 -2.39,-27.94 -7.45,-35.54 -5.02,-7.54 -13,-11.43 -23.76,-11.43 -6.47,0 -12.35,1.22 -18.05,3.41 -5.68,2.33 -10.65,5.89 -14.93,10.57 -4.28,4.75 -7.78,10.99 -10.36,18.63 -2.63,7.45 -3.99,16.73 -3.99,27.34l0 88.22c-2.34,0.43 -5.21,0.82 -8.22,1.01 -2.98,0.25 -5.85,0.35 -8.28,0.35 -2.48,0 -5.35,-0.1 -8.57,-0.35 -3.16,-0.19 -5.99,-0.58 -8.46,-1.01l0 -174.35z"/>
  <path class="fil0" d="M7888.78 1911.26c0.49,19.02 5.31,32.88 14.75,41.64 9.49,8.91 23.26,13.48 41.7,13.48 16.05,0 31.39,-2.98 45.73,-8.62 1.91,3.37 3.32,7.65 4.43,12.46 1.17,4.83 1.85,9.63 2,14.36 -7.3,3.11 -15.57,5.5 -24.46,7.16 -9.16,1.54 -18.85,2.37 -29.78,2.37 -15.88,0 -29.45,-2.28 -40.79,-6.6 -11.28,-4.43 -20.63,-10.76 -28.03,-18.69 -7.3,-8.03 -12.84,-17.61 -16.05,-28.51 -3.5,-11.01 -5.1,-22.97 -5.1,-36.21 0,-12.84 1.6,-24.96 4.91,-36.21 3.16,-11.24 8.18,-20.96 15.03,-29.18 6.91,-8.34 15.38,-14.85 25.64,-19.66 10.37,-4.93 22.54,-7.35 36.6,-7.35 12.07,0 22.52,1.98 31.53,6.12 9.05,4.01 16.75,9.64 22.82,16.85 5.99,7.05 10.75,15.57 13.86,25.49 3.16,9.74 4.87,20.49 4.87,32.03 0,3.12 -0.19,6.51 -0.39,10.01 -0.21,3.51 -0.41,6.53 -0.64,9.06l-118.64 0zm86.28 -25.21c0,-6.42 -0.73,-12.36 -2.54,-18.15 -1.65,-5.83 -4.17,-10.84 -7.53,-15.08 -3.21,-4.38 -7.41,-7.74 -12.51,-10.32 -5.07,-2.67 -11.15,-3.89 -18.15,-3.89 -13.83,0 -24.43,4.08 -31.88,12.5 -7.3,8.33 -11.76,20 -13.28,34.94l85.89 0z"/>
  <path class="fil0" d="M8052.53 1815.65c2.49,-0.29 4.96,-0.68 7.2,-0.97 2.39,-0.15 4.86,-0.25 7.35,-0.25 2.58,0 4.81,0.1 7.01,0.25 2.09,0.29 4.37,0.67 6.95,0.97 0.79,3.5 1.42,8.02 2.19,13.82 0.58,5.74 0.83,10.57 0.83,14.55 2.29,-3.99 5.26,-7.83 8.67,-11.62 3.59,-3.85 7.58,-7.3 12.07,-10.28 4.57,-3.06 9.87,-5.58 15.76,-7.58 5.84,-1.9 12.36,-2.82 19.32,-2.82 19.86,0 34.61,5.64 44.19,17.02 9.58,11.49 14.15,28.42 14.15,50.75l0 110.5c-2.39,0.43 -5.2,0.82 -8.46,1.01 -3.1,0.25 -5.99,0.35 -8.46,0.35 -2.35,0 -5.31,-0.1 -8.34,-0.35 -3.06,-0.19 -5.74,-0.58 -8.26,-1.01l0 -101.2c0,-16.07 -2.48,-27.94 -7.64,-35.54 -4.83,-7.54 -12.7,-11.43 -23.65,-11.43 -6.37,0 -12.36,1.22 -17.96,3.41 -5.68,2.33 -10.65,5.89 -15.03,10.57 -4.28,4.75 -7.78,10.99 -10.36,18.63 -2.52,7.45 -3.79,16.73 -3.79,27.34l0 88.22c-2.53,0.43 -5.41,0.82 -8.43,1.01 -3.06,0.25 -5.83,0.35 -8.35,0.35 -2.49,0 -5.26,-0.1 -8.47,-0.35 -3.06,-0.19 -5.98,-0.58 -8.46,-1.01l0 -174.35z"/>
  <path class="fil0" d="M8245.94 1958.39c6.09,2.58 12.84,4.49 20.14,5.99 7.4,1.42 14.75,2.28 21.85,2.28 5.26,0 10.27,-0.58 15.04,-1.69 4.77,-1.27 8.85,-2.88 12.35,-5.16 3.51,-2.25 6.48,-5.06 8.57,-8.43 2.1,-3.25 3.21,-6.85 3.21,-10.9 0,-4.56 -0.98,-8.32 -2.58,-11.28 -1.71,-2.98 -3.99,-5.44 -6.82,-7.44 -2.77,-2.1 -6.08,-3.76 -9.83,-5.26 -3.7,-1.46 -7.78,-2.86 -12.06,-4.29l-11.87 -4.31c-14.46,-5.37 -25.06,-11.64 -31.63,-18.46 -6.47,-6.8 -9.78,-15.86 -9.78,-27.43 0,-15.47 5.4,-27.74 16.44,-36.79 11,-9.1 27.05,-13.53 48.38,-13.53 8.8,0 17.46,0.88 26.03,2.43 8.46,1.81 15.86,3.8 22.33,6.08 -0.58,4.43 -1.31,9.1 -2.68,13.48 -1.11,4.67 -2.72,8.81 -4.66,12.66 -4.92,-1.76 -10.81,-3.56 -17.76,-5.26 -6.82,-1.71 -14.27,-2.48 -22.24,-2.48 -8.47,0 -15.77,1.4 -22.24,4.27 -6.48,3.02 -9.7,8.23 -9.7,15.67 0,3.75 0.78,7.1 2.39,9.84 1.71,2.73 3.8,5 6.48,7 2.62,1.91 5.88,3.55 9.28,4.91 3.5,1.43 7.3,2.74 11.39,4.1l15.03 5.05c5.3,1.81 10.55,4.1 15.37,6.52 4.86,2.49 9.15,5.51 12.55,9.25 3.5,3.8 6.37,8.33 8.57,13.62 2.08,5.41 3.11,11.84 3.11,19.18 0,8.43 -1.61,15.95 -4.92,22.96 -3.41,6.96 -8.37,12.95 -14.55,17.77 -6.18,4.81 -13.76,8.51 -22.52,11.24 -8.86,2.72 -18.74,4.14 -29.14,4.14 -11.05,0 -20.54,-0.64 -28.61,-2.28 -8.28,-1.41 -15.82,-3.46 -22.82,-5.93 0.39,-4.49 1.4,-9.16 2.92,-13.69 1.46,-4.66 3.07,-9.24 4.96,-13.82z"/>
  <path class="fil0" d="M8428.58 1911.26c0.6,19.02 5.41,32.88 14.85,41.64 9.39,8.91 23.27,13.48 41.61,13.48 16.05,0 31.38,-2.98 45.94,-8.62 1.69,3.37 3.21,7.65 4.33,12.46 1.17,4.83 1.89,9.63 2.19,14.36 -7.6,3.11 -15.86,5.5 -24.71,7.16 -8.92,1.54 -18.88,2.37 -29.74,2.37 -15.86,0 -29.43,-2.28 -40.77,-6.6 -11.39,-4.43 -20.63,-10.76 -28.12,-18.69 -7.2,-8.03 -12.77,-17.61 -16.05,-28.51 -3.41,-11.01 -5.12,-22.97 -5.12,-36.21 0,-12.84 1.61,-24.96 4.91,-36.21 3.36,-11.24 8.28,-20.96 15.14,-29.18 6.91,-8.34 15.36,-14.85 25.74,-19.66 10.17,-4.93 22.43,-7.35 36.5,-7.35 11.96,0 22.52,1.98 31.53,6.12 9.15,4.01 16.64,9.64 22.71,16.85 6.18,7.05 10.86,15.57 13.97,25.49 3.16,9.74 4.85,20.49 4.85,32.03 0,3.12 -0.19,6.51 -0.39,10.01 -0.19,3.51 -0.48,6.53 -0.67,9.06l-118.69 0zm86.37 -25.21c0,-6.42 -0.82,-12.36 -2.52,-18.15 -1.75,-5.83 -4.19,-10.84 -7.54,-15.08 -3.21,-4.38 -7.39,-7.74 -12.45,-10.32 -5.21,-2.67 -11.18,-3.89 -18.25,-3.89 -13.86,0 -24.37,4.08 -31.72,12.5 -7.4,8.33 -11.88,20 -13.48,34.94l85.97 0z"/>
  <path class="fil0" d="M8486.19 1128.07c12.84,27.69 23.44,56.1 31.81,85.15 8.47,29.2 14.65,58.54 18.44,88.12 -51.24,18.79 -97.31,31 -138.38,37.13 -40.92,5.84 -85.15,8.81 -132.45,8.81 -83.94,0 -157.52,-13.63 -220.68,-40.73 -63.31,-27.14 -116.24,-65.2 -159.3,-113.96 -42.87,-49.05 -75.27,-106.95 -96.93,-174.01 -21.75,-67.19 -32.61,-140.23 -32.61,-219.2 0,-78.97 11.39,-152.19 34.02,-219.79 22.82,-67.73 55.62,-126.32 98.58,-175.51 42.87,-49.44 95.68,-87.97 158.45,-115.66 62.62,-27.53 133.96,-41.36 213.9,-41.36 47.45,0 91.24,2.91 131.04,8.86 40.05,5.83 83.25,18.25 129.72,36.97 -1.99,29.59 -7.88,58.64 -17.75,86.61 -9.98,28.18 -20.83,56.59 -32.71,85.2 -34.5,-11.92 -65.2,-20.24 -91.67,-25.2 -26.71,-4.91 -58.3,-7.4 -94.98,-7.4 -94.74,0 -167.53,30.84 -218.28,92.59 -50.85,61.66 -76.29,153.29 -76.29,274.68 0,240.8 102.13,361.29 306.54,361.29 36.5,0 68.67,-2.49 96.3,-7.34 27.53,-5.02 58.74,-13.34 93.23,-25.26zm-3663.66 -863.36c36.49,-5.83 72.59,-8.8 108.06,-8.8 35.52,0 72.11,2.97 109.59,8.8l0 1064.8c-37.48,5.93 -73.48,8.95 -108.07,8.95 -36.49,0 -73.09,-3.02 -109.58,-8.95l0 -1064.8zm-989.24 0c30.61,-5.83 59.75,-8.8 87.35,-8.8 29.63,0 60.24,2.97 91.92,8.8l411.66 678.36 0 -678.36c35.46,-5.83 69.47,-8.8 102.08,-8.8 30.71,0 60.33,2.97 88.86,8.8l0 1064.8c-31.53,5.93 -60.16,8.95 -85.79,8.95 -27.78,0 -57.81,-3.02 -90.41,-8.95l-414.63 -676.79 0 676.79c-31.58,5.93 -63.69,8.95 -96.38,8.95 -32.41,0 -64.04,-3.02 -94.65,-8.95l0 -1064.8zm-999.5 0c18.63,-2.97 36.88,-4.81 54.75,-5.83 17.67,-0.99 36,-1.46 54.74,-1.46 16.83,0 34.11,0.48 51.77,1.46 17.71,1.02 36.05,2.86 54.84,5.83l0 552.52c0,60.19 2.19,111.77 6.66,154.69 4.49,42.87 13.28,78.48 26.62,106.51 13.28,28.22 32.11,48.86 56.34,62.23 24.23,13.28 55.51,20.01 94.02,20.01 38.48,0 69.52,-6.72 93.22,-20.01 23.85,-13.37 42.29,-34.01 55.57,-62.23 13.42,-28.03 22.24,-63.64 26.72,-106.51 4.47,-42.92 6.66,-94.5 6.66,-154.69l0 -552.52c19.66,-2.97 38.48,-4.81 56.25,-5.83 17.76,-0.99 35.08,-1.46 51.81,-1.46 17.68,0 35.71,0.48 54.06,1.46 18.25,1.02 36.69,2.86 55.63,5.83l0 598.36c0,72.07 -6.04,137.95 -17.8,197.75 -11.87,59.61 -33.14,110.74 -63.75,153.12 -30.52,42.53 -71.57,75.38 -123,98.54 -51.19,23.26 -116.4,34.79 -195.37,34.79 -78.88,0 -144.09,-11.53 -195.52,-34.79 -51.28,-23.16 -92.24,-56.01 -122.85,-98.54 -30.61,-42.38 -51.82,-93.51 -63.69,-153.12 -11.88,-59.8 -17.68,-125.68 -17.68,-197.75l0 -598.36zm2629.96 543.52c11.87,2.04 22.96,2.97 33.33,2.97l37.75 0c24.72,0 48.86,-3.11 72.61,-9.54 23.64,-6.51 44.56,-17.17 62.91,-31.92 18.25,-14.75 32.89,-34.3 43.7,-58.44 10.76,-24.18 16.25,-54.15 16.25,-89.57 0,-36.6 -5.49,-67.45 -16.25,-92.64 -10.8,-25.06 -25.45,-45.36 -43.7,-60.68 -18.35,-15.34 -39.27,-26.18 -62.91,-32.56 -23.76,-6.47 -47.89,-9.68 -72.61,-9.68 -10.85,0 -21.02,0.25 -30.41,0.78 -9.34,0.53 -22.92,1.75 -40.68,3.74l0 377.55zm-216.33 -547.9c45.54,-3.94 91.42,-7.16 137.79,-9.58 46.43,-2.49 93.44,-3.7 140.77,-3.7 49.44,0 99.41,4.85 150.26,14.69 50.84,9.87 96.73,28.47 137.7,55.67 40.98,27.1 74.2,64.81 99.9,113.27 25.74,48.28 38.59,110.95 38.59,188.07 0,76.98 -12.86,139.4 -38.59,187.29 -25.7,47.93 -58.73,85.68 -99.11,113.32 -40.48,27.59 -85.64,46.28 -135.47,56.21 -49.97,9.92 -99.02,14.85 -147.39,14.85 -12.84,0 -25,-0.3 -36.3,-0.88 -11.38,-0.39 -21.94,-1.17 -31.81,-2.04l0 342.02c-18.74,2.82 -36.98,4.85 -54.84,5.93 -17.75,0.93 -34.98,1.41 -51.92,1.41 -15.67,0 -33.03,-0.48 -51.66,-1.41 -18.85,-1.08 -38.01,-3.11 -57.9,-5.93l0 -1069.18zm863.44 4.38c36.49,-5.83 71.62,-8.8 105.2,-8.8 34.59,0 70.51,2.97 108.12,8.8l0 878.2 368.69 0c3,16.79 4.91,32.85 5.89,48.07 1.02,15.28 1.6,29.97 1.6,43.73 0,15.82 -0.58,31.3 -1.6,46.68 -0.98,15.23 -2.88,31.37 -5.89,48.12l-582.01 0 0 -1064.8zm1214.28 672.33l-122.92 -447.19 -239.84 839.66c-35.47,5.93 -69.68,8.95 -102.09,8.95 -36.59,0 -72.7,-3.02 -108.28,-8.95l336.24 -1064.8c20.72,-2.97 40.54,-5.16 59.23,-6.51 18.73,-1.61 39.46,-2.28 62.17,-2.28 19.77,0 38.93,0.67 57.76,2.28 18.83,1.35 39.47,3.55 62.24,6.51l333.12 1064.8c-40.39,5.93 -79.8,8.95 -118.39,8.95 -37.57,0 -74.06,-3.02 -109.68,-8.95l-59.12 -213.23 -287.38 0 38 -179.25 198.92 0z"/>
  <path class="fil1" d="M2045.1 1159.83l0 -653.11 -492.06 0 0 553.05c15.46,794.12 -1153.1,748.91 -1109.27,-23.12l0 0 0 -1036.66 -443.77 0.51 0 1127.59c32.98,1308.34 1965.41,1318.74 2045.1,31.74z"/>
  <path class="fil2" d="M1183.72 2104.92l0.1 0c4.97,-0.75 9.94,-1.51 14.97,-2.33l0 0c10.29,-1.7 20.62,-3.48 30.98,-5.43l0 0c4.81,-0.96 9.63,-1.9 14.46,-2.87l0 0c10.48,-2.17 20.91,-4.45 31.29,-6.85l0 0c4.66,-1.08 9.28,-2.21 13.89,-3.34l0 0c10.43,-2.62 20.85,-5.33 31.28,-8.32l0 0c4.5,-1.2 8.99,-2.51 13.47,-3.81l0 0c10.47,-3.08 20.78,-6.25 31.11,-9.63l0 0c4.32,-1.42 8.68,-2.84 12.95,-4.31l0 0c10.38,-3.53 20.76,-7.2 30.98,-11.07l0 0c4.18,-1.58 8.41,-3.2 12.56,-4.83l0 0c10.33,-4 20.58,-8.23 30.81,-12.55l0 0c3.94,-1.68 7.84,-3.41 11.77,-5.14l0 0c10.36,-4.54 20.64,-9.32 30.83,-14.2l0 0c3.73,-1.76 7.38,-3.56 11.03,-5.41l0 0c10.33,-5.07 20.51,-10.38 30.64,-15.86l0 0c3.39,-1.81 6.85,-3.7 10.33,-5.57l0 0c10.24,-5.67 20.38,-11.56 30.48,-17.62l0 0c3.15,-1.82 6.15,-3.72 9.25,-5.6l0 0c10.2,-6.29 20.26,-12.76 30.28,-19.39l0 0c2.88,-1.94 5.82,-3.89 8.7,-5.93l0 0c10.11,-6.87 20.11,-13.94 29.96,-21.3l0 0 7.59 -5.65c10.04,-7.62 20.04,-15.4 29.8,-23.42l0 0 6.54 -5.38c9.89,-8.35 19.78,-16.85 29.36,-25.54l0 0 5.74 -5.34c9.81,-9.06 19.44,-18.27 28.91,-27.73l0 0 4.78 -4.85c9.56,-9.78 18.96,-19.79 28.11,-30.04l0 0 4.09 -4.57c47.41,-53.52 89.38,-113.37 124.66,-179.7l-717.72 0c-207.29,74.32 -460.23,27.35 -617.05,-134.07l0 0 -1.68 -1.7c-5.57,-5.84 -11.03,-11.77 -16.34,-17.9l0 0 -1.64 -1.82c-5.07,-5.91 -9.99,-11.87 -14.87,-18.05l0 0 -2.51 -3.17c-4.68,-6.13 -9.29,-12.38 -13.83,-18.74l0 0 -2.19 -3.2c-4.42,-6.35 -8.6,-12.76 -12.76,-19.42l0 0 -2.5 -3.97c-3.97,-6.48 -7.81,-13.09 -11.51,-19.87l0 0 -2.42 -4.42c-3.58,-6.54 -6.95,-13.24 -10.2,-19.99l0 0c-0.99,-2.07 -1.96,-4.04 -2.9,-6.03l0 0c-3.06,-6.59 -6.01,-13.26 -8.82,-20.04l0 0c-0.91,-2.11 -1.8,-4.23 -2.69,-6.37l0 0c-2.66,-6.84 -5.33,-13.81 -7.81,-20.85l0 0c-0.87,-2.36 -1.66,-4.76 -2.5,-7.14l0 0c-2.27,-6.73 -4.42,-13.6 -6.54,-20.49l0 0c-0.88,-3.27 -1.87,-6.63 -2.75,-9.98l0 0c-1.73,-6.29 -3.37,-12.68 -4.94,-19.15l0 0c-1.02,-4.18 -1.92,-8.36 -2.93,-12.62l0 0 -0.05 -0.21c38.88,493.38 354.13,790.99 727.43,892.81l0 0z"/>
  <path class="fil3" d="M2045.15 2.28l-492.12 0 0 431.68 0 72.76 0 112.94 0 163.58 0 276.53c4.72,241.62 -100.16,405.41 -247.2,494.77l0 0 0.06 0 -0.84 0.53c-3.01,1.82 -5.97,3.54 -8.92,5.29l0 0 -4.82 2.72c-4.8,2.71 -9.58,5.33 -14.51,7.9l0 0 -5.15 2.64c-5.08,2.57 -10.21,5.12 -15.42,7.54l0 0 -4.38 2.09c-3.05,1.4 -6.18,2.79 -9.35,4.18l0 0 -5.29 2.24c-5.07,2.16 -10.19,4.23 -15.31,6.23l0 0 -5.21 1.99c-4.97,1.9 -9.98,3.72 -15.01,5.45l0 0c-1.97,0.7 -3.99,1.4 -5.99,2.04l0 0c-3.18,1.08 -6.39,2.14 -9.51,3.12l0 0c-2.19,0.67 -4.3,1.3 -6.48,1.95l0 0c-4.72,1.44 -9.47,2.74 -14.2,4.06l0 0 -7.21 1.92c-4.13,1.09 -8.31,2.14 -12.44,3.15l0 0c-2.96,0.69 -5.96,1.32 -8.87,1.99l0 0c-2.96,0.63 -5.81,1.28 -8.75,1.91l0 0c-3.79,0.74 -7.56,1.46 -11.38,2.16l0 0c-3.32,0.63 -6.66,1.18 -10,1.78l0 0 -7.8 1.21c-4.33,0.67 -8.63,1.27 -12.89,1.82l0 0c-2.87,0.39 -5.88,0.77 -8.77,1.08l0 0c-2.88,0.36 -5.74,0.65 -8.6,0.94l0 0c-4.47,0.51 -8.91,0.87 -13.43,1.24l0 0c-2.67,0.25 -5.29,0.4 -7.93,0.56l0 0c-3.29,0.19 -6.66,0.43 -9.95,0.57l0 0c-3.25,0.18 -6.41,0.34 -9.61,0.41l0 0c-3.82,0.17 -7.6,0.26 -11.5,0.29l0 0 -7.52 0.1c-4.96,0 -9.8,0 -14.71,-0.13l0 0c-2.14,-0.03 -4.32,-0.09 -6.41,-0.14l0 0c-3.9,-0.18 -7.69,-0.29 -11.59,-0.51l0 0c-2.69,-0.12 -5.36,-0.27 -7.98,-0.45l0 0c-4.52,-0.25 -9.04,-0.55 -13.43,-0.94l0 0 -5.91 -0.51c-5.17,-0.51 -10.33,-1.04 -15.47,-1.66l0 0 -5.69 -0.72c-4.45,-0.58 -8.92,-1.18 -13.32,-1.82l0 0 -4.85 -0.73c-5.03,-0.79 -10.05,-1.7 -15.05,-2.6l0 0 -5.45 -1.03c-5.31,-1 -10.53,-2.09 -15.77,-3.27l0 0 -4.65 -0.98c-4.93,-1.21 -9.86,-2.36 -14.76,-3.58l0 0 -3.08 -0.82c-5.26,-1.33 -10.53,-2.84 -15.7,-4.33l0 0 -4.85 -1.42c-5.38,-1.6 -10.67,-3.27 -15.95,-5.02l0 0 -3.54 -1.15c-5.11,-1.73 -10.3,-3.51 -15.35,-5.41l0 0 -2.07 -0.75c-5.53,-2.02 -10.93,-4.18 -16.37,-6.35l0 0 -3.36 -1.36c-5.41,-2.27 -10.79,-4.54 -16.07,-6.93l0 0 -3.05 -1.41c-5.17,-2.31 -10.31,-4.76 -15.4,-7.24l0 0 -1.21 -0.64c-5.36,-2.6 -10.72,-5.39 -15.95,-8.2l0 0 -2.98 -1.58c-5.14,-2.81 -10.22,-5.72 -15.28,-8.63l0 0 -2.76 -1.69c-10.47,-6.17 -20.72,-12.67 -30.76,-19.56l0 0 -2.94 -2.04c-4.66,-3.29 -9.34,-6.63 -13.96,-10.04l0 0 -3.2 -2.43c-4.63,-3.43 -9.15,-7.04 -13.74,-10.69l0 0 -0.38 -0.31 -0.07 -0.05 0 -0.05c-4.73,-3.84 -9.4,-7.78 -14.01,-11.8l0 0 -2.34 -2.06c-4.44,-3.91 -8.81,-7.93 -13.18,-12.04l0 0 -2.4 -2.33c-4.45,-4.23 -8.87,-8.56 -13.2,-13.01l0 0 -1.68 -1.7c-5.57,-5.84 -11.03,-11.77 -16.34,-17.9l0 0 -1.64 -1.82c-5.07,-5.91 -9.99,-11.87 -14.87,-18.05l0 0 -2.51 -3.17c-4.68,-6.13 -9.29,-12.38 -13.83,-18.74l0 0 -2.19 -3.2c-4.42,-6.35 -8.6,-12.76 -12.76,-19.42l0 0 -2.5 -3.97 -0.15 -0.29 -0.19 -0.29 -0.19 -0.29 -0.19 -0.36 -0.18 -0.24 -0.18 -0.36 -0.14 -0.29 -0.18 -0.19c202.74,441.6 694.13,620.79 1133.33,537.74l0 0 0.15 -0.09 0.43 -0.31 0.45 -0.36 0.53 -0.41 7.59 -5.65c10.04,-7.62 20.04,-15.4 29.8,-23.42l0 0 6.54 -5.38c9.89,-8.35 19.78,-16.85 29.36,-25.54l0 0 5.74 -5.34c9.81,-9.06 19.44,-18.27 28.91,-27.73l0 0 4.78 -4.85c9.56,-9.78 18.96,-19.79 28.11,-30.04l0 0 4.09 -4.57 5.45 -6.23 0.88 -1.03 0.36 -0.39 5.72 -6.7 0.24 -0.25 0.85 -1 4.85 -5.75 0.45 -0.6 0.09 -0.09 0.53 -0.53 5.33 -6.65 0.7 -0.85 5.6 -6.92 0.1 -0.07 0.74 -0.99 4.71 -6.01 0.46 -0.55 0.1 -0.18 0.6 -0.76 4.56 -5.93 1.59 -2.12 4.59 -5.96 0.53 -0.75 0.7 -0.88 4.57 -6.3 0.36 -0.48 0.19 -0.22 2.26 -3.17 2.45 -3.39 1.03 -1.36 0.36 -0.58 5.12 -7.17 0.17 -0.29 0.64 -0.91 4.73 -6.92 0.25 -0.29 0.17 -0.29 4.32 -6.39 0.97 -1.51 1.37 -2.02 3.56 -5.36 0.57 -0.88 0.53 -0.82 4.59 -7.11 0.24 -0.41 0.53 -0.87 3.65 -5.78 2.11 -3.34 0.18 -0.41 2.31 -3.65 1.72 -2.86 0.48 -0.78 2.21 -3.68 2.15 -3.63 1.2 -1.97 3.29 -5.69 2 -3.38 0 -0.07 2.16 -3.7 0.17 -0.36 3.68 -6.51 0.75 -1.3 3.44 -6.36 0.36 -0.58 2.02 -3.82 2.09 -3.75 2.04 -3.84 0.15 -0.43 1.85 -3.44 1.99 -3.85 1.97 -3.9 1.61 -3.02 0.36 -0.79 1.96 -3.92 1.89 -3.93 1.93 -3.91 1.95 -3.97 1.94 -3.91 0.84 -1.88 2.55 -5.48c53.2,-114.31 87.32,-246.09 96.68,-395.34l0 0 0 -1157.54z"/>
 </g>
</svg>
