<?xml version="1.0" encoding="UTF-8"?>
<!DOCTYPE svg PUBLIC "-//W3C//DTD SVG 1.1//EN" "http://www.w3.org/Graphics/SVG/1.1/DTD/svg11.dtd">
<!-- Creator: CorelDRAW 2021 (64-Bit) -->
<svg xmlns="http://www.w3.org/2000/svg" xml:space="preserve" width="12.5798mm" height="3.5862mm" version="1.1" style="shape-rendering:geometricPrecision; text-rendering:geometricPrecision; image-rendering:optimizeQuality; fill-rule:evenodd; clip-rule:evenodd"
viewBox="0 0 89.96 25.65"
 xmlns:xlink="http://www.w3.org/1999/xlink"
 xmlns:xodm="http://www.corel.com/coreldraw/odm/2003">
 <defs>
  <style type="text/css">
   <![CDATA[
    .fil1 {fill:#DB56EB;fill-rule:nonzero}
    .fil0 {fill:white;fill-rule:nonzero}
   ]]>
  </style>
 </defs>
 <g id="Layer_x0020_1">
  <metadata id="CorelCorpID_0Corel-Layer"/>
  <path class="fil0" d="M86.7 8.83c1.86,0 3.27,-1.39 3.27,-3.22 0,-1.83 -1.41,-3.22 -3.27,-3.22 -1.87,0 -3.28,1.39 -3.28,3.22 0,1.83 1.41,3.22 3.28,3.22zm0 -1c-1.27,0 -2.21,-0.95 -2.21,-2.22 0,-1.27 0.94,-2.22 2.21,-2.22 1.25,0 2.19,0.95 2.19,2.22 0,1.27 -0.94,2.22 -2.19,2.22z"/>
  <path class="fil0" d="M81.01 0l0 3.7c-0.51,-0.81 -1.36,-1.32 -2.39,-1.32 -1.76,0 -3.08,1.39 -3.08,3.22 0,1.83 1.32,3.22 3.08,3.22 1.02,0 1.88,-0.51 2.39,-1.31l0 1.17 1.04 0 0 -8.68 -1.04 0zm-2.19 7.83c-1.27,0 -2.21,-0.95 -2.21,-2.22 0,-1.27 0.94,-2.22 2.21,-2.22 1.25,0 2.19,0.95 2.19,2.22 0,1.27 -0.94,2.22 -2.19,2.22z"/>
  <path class="fil0" d="M71.75 2.39c-0.97,0 -1.75,0.41 -2.22,1.13l0 -0.99 -1.04 0 0 6.15 1.04 0 0 -3.45c0,-1.11 0.75,-1.85 1.88,-1.85 1.1,0 1.8,0.72 1.8,1.82l0 3.47 1.04 0 0 -3.8c0,-1.51 -1,-2.5 -2.5,-2.5z"/>
  <path class="fil0" d="M66.65 7.74l0 -5.21 -4.68 0 0 1 3.64 0 0 1.21 -1.83 0c-1.27,0 -2.22,0.88 -2.22,2.04 0,1.17 0.95,2.05 2.22,2.05 0.84,0 1.56,-0.36 1.94,-0.94l0 0.8 1.74 0 0 -0.94 -0.81 0zm-2.74 0.14c-0.74,0 -1.28,-0.47 -1.28,-1.11 0,-0.63 0.54,-1.1 1.28,-1.1l1.7 0 0 0.99c0,0.74 -0.7,1.22 -1.7,1.22z"/>
  <path class="fil0" d="M58.11 2.39c-1.01,0 -1.78,0.46 -2.22,1.28 -0.35,-0.8 -1.11,-1.28 -2.1,-1.28 -0.88,0 -1.58,0.36 -2.01,1.03l0 -0.88 -1.04 0 0 6.15 1.04 0 0 -3.65c0,-0.99 0.68,-1.64 1.69,-1.64 0.96,0 1.59,0.64 1.59,1.62l0 3.68 1.04 0 0 -3.65c0,-0.99 0.68,-1.64 1.69,-1.64 0.97,0 1.59,0.64 1.59,1.62l0 3.68 1.04 0 0 -3.97c0,-1.41 -0.92,-2.33 -2.3,-2.33z"/>
  <path class="fil0" d="M48.9 7.74l0 -5.21 -4.68 0 0 1 3.64 0 0 1.21 -1.83 0c-1.27,0 -2.22,0.88 -2.22,2.04 0,1.17 0.95,2.05 2.22,2.05 0.84,0 1.56,-0.36 1.94,-0.94l0 0.8 1.74 0 0 -0.94 -0.81 0zm-2.74 0.14c-0.74,0 -1.28,-0.47 -1.28,-1.11 0,-0.63 0.54,-1.1 1.28,-1.1l1.7 0 0 0.99c0,0.74 -0.7,1.22 -1.7,1.22z"/>
  <path class="fil0" d="M41.08 3.64l0 -1.11 -1.04 0 0 6.15 1.04 0 0 -3.09c0,-1.27 0.76,-2.09 2.01,-2.09l0 -1.07c-0.87,0 -1.57,0.45 -2.01,1.21z"/>
  <path class="fil0" d="M37.25 2.53l0 1.16c-0.51,-0.8 -1.36,-1.3 -2.4,-1.3 -1.76,0 -3.08,1.36 -3.08,3.16 0,1.81 1.32,3.16 3.08,3.16 1.04,0 1.89,-0.49 2.4,-1.29l0 2.61 -4.87 0 0 0.95 5.91 0 0 -8.44 -1.04 0zm-2.19 5.23c-1.27,0 -2.21,-0.95 -2.21,-2.22 0,-1.25 0.94,-2.21 2.21,-2.21 1.25,0 2.19,0.95 2.19,2.21 0,1.27 -0.94,2.22 -2.19,2.22z"/>
  <path class="fil0" d="M27.51 8.83c1.86,0 3.27,-1.39 3.27,-3.22 0,-1.83 -1.41,-3.22 -3.27,-3.22 -1.87,0 -3.28,1.39 -3.28,3.22 0,1.83 1.41,3.22 3.28,3.22zm0 -1c-1.27,0 -2.21,-0.95 -2.21,-2.22 0,-1.27 0.94,-2.22 2.21,-2.22 1.25,0 2.19,0.95 2.19,2.22 0,1.27 -0.94,2.22 -2.19,2.22z"/>
  <path class="fil0" d="M21.74 3.64l0 -1.11 -1.04 0 0 6.15 1.04 0 0 -3.09c0,-1.27 0.76,-2.09 2.01,-2.09l0 -1.07c-0.87,0 -1.57,0.45 -2.01,1.21z"/>
  <path class="fil0" d="M16.24 2.39c-1.03,0 -1.88,0.51 -2.39,1.32l0 -1.17 -1.04 0 0 8.44 1.04 0 0 -3.46c0.51,0.81 1.36,1.31 2.39,1.31 1.76,0 3.09,-1.39 3.09,-3.22 0,-1.83 -1.33,-3.22 -3.09,-3.22zm-0.19 5.44c-1.25,0 -2.19,-0.95 -2.19,-2.22 0,-1.27 0.94,-2.22 2.19,-2.22 1.27,0 2.21,0.95 2.21,2.22 0,1.27 -0.94,2.22 -2.21,2.22z"/>
  <path class="fil0" d="M11.48 5.61c0,-1.83 -1.4,-3.22 -3.27,-3.22 -1.86,0 -3.27,1.39 -3.27,3.22 0,1.83 1.41,3.22 3.27,3.22 1.51,0 2.7,-0.86 3.15,-2.11l-1.15 0c-0.31,0.69 -1.07,1.16 -2,1.16 -1.12,0 -1.98,-0.75 -2.16,-1.83l5.4 0c0.01,-0.12 0.02,-0.31 0.02,-0.43zm-3.27 -2.27c1.1,0 1.97,0.72 2.16,1.77l-4.31 0c0.21,-1.05 1.05,-1.77 2.15,-1.77z"/>
  <path class="fil0" d="M2.45 3.64l0 -1.11 -1.04 0 0 6.15 1.04 0 0 -3.09c0,-1.27 0.76,-2.09 2.01,-2.09l0 -1.07c-0.87,0 -1.57,0.45 -2.01,1.21z"/>
  <path class="fil1" d="M54.98 25.65c2.38,0 4.17,-1.74 4.17,-4.04 0,-2.3 -1.79,-4.04 -4.17,-4.04 -2.38,0 -4.17,1.74 -4.17,4.04 0,2.3 1.79,4.04 4.17,4.04zm0 -2.14c-1.09,0 -1.89,-0.82 -1.89,-1.91 0,-1.09 0.8,-1.91 1.89,-1.91 1.09,0 1.89,0.82 1.89,1.91 0,1.09 -0.8,1.91 -1.89,1.91z"/>
  <path class="fil1" d="M48.18 18.77l0 -1.03 -2.21 0 0 7.73 2.21 0 0 -3.61c0,-1.2 0.76,-1.97 2.15,-1.97l0 -2.27c-0.86,0 -1.59,0.42 -2.15,1.15z"/>
  <path class="fil1" d="M42 17.74l0 4.3c0,0.88 -0.61,1.47 -1.5,1.47 -0.83,0 -1.38,-0.58 -1.38,-1.44l0 -4.33 -2.21 0 0 5c0,1.76 1.14,2.91 2.85,2.91 0.91,0 1.68,-0.35 2.24,-1.03l0 0.85 2.21 0 0 -7.73 -2.21 0z"/>
  <polygon class="fil1" points="35.68,19.75 35.68,17.74 33.85,17.74 33.85,15.47 31.64,15.47 31.64,17.74 30.29,17.74 30.29,19.75 31.64,19.75 31.64,25.46 35.68,25.46 35.68,23.45 33.85,23.45 33.85,19.75 "/>
  <path class="fil1" d="M26.87 17.74l0 4.3c0,0.88 -0.61,1.47 -1.5,1.47 -0.83,0 -1.38,-0.58 -1.38,-1.44l0 -4.33 -2.21 0 0 5c0,1.76 1.14,2.91 2.85,2.91 0.91,0 1.68,-0.35 2.24,-1.03l0 0.85 2.21 0 0 -7.73 -2.21 0z"/>
  <path class="fil0" d="M5.64 17.1l-5.64 2.69 0 2.31 5.64 2.69 0 -2.55 -3 -1.3 3 -1.3 0 -2.55zm7.97 0.17l0 -2.57 -6.13 0 0 10.94 2.73 0 0 -4.09 2.81 0 0 -2.57 -2.81 0 0 -1.71 3.41 0zm1.25 -0.17l0 2.55 3 1.3 -3 1.3 0 2.55 5.64 -2.69 0 -2.31 -5.64 -2.69z"/>
 </g>
</svg>
